<svg width="128" height="128" viewBox="0 0 128 128" fill="none" xmlns="http://www.w3.org/2000/svg">
<g clip-path="url(#clip0_3_32)">
<path d="M33.24 96.12C32.52 88.28 31.68 80.8 30.72 73.68C29.84 66.48 28.96 59.48 28.08 52.68C27.84 51 27.48 49.96 27 49.56C26.52 49.08 25.92 48.84 25.2 48.84C23.68 48.84 21.8 50.24 19.56 53.04L16.8 49.8C20.08 45.32 23.2 41.92 26.16 39.6C29.12 37.28 32.08 36.12 35.04 36.12C38.16 36.12 40.48 37.04 42 38.88C43.52 40.72 44.48 43.56 44.88 47.4C45.44 52.2 45.92 57.24 46.32 62.52C46.72 67.8 47.08 73.08 47.4 78.36C50.68 72.04 53.92 65.6 57.12 59.04C60.4 52.48 63.6 45.76 66.72 38.88H77.16C77.56 41.52 77.96 44.68 78.36 48.36C78.76 51.96 79.16 55.8 79.56 59.88C80.04 63.88 80.48 67.8 80.88 71.64C81.28 75.48 81.68 78.96 82.08 82.08C84.8 78.4 87.32 74.76 89.64 71.16C91.96 67.56 94.24 63.76 96.48 59.76L95.04 55.56C94.48 53.96 93.92 52.32 93.36 50.64C92.8 48.96 92.52 47.36 92.52 45.84C92.52 42.4 93.52 39.88 95.52 38.28C97.52 36.6 99.92 35.76 102.72 35.76C103.84 35.76 104.88 35.96 105.84 36.36C106.8 36.68 107.56 37.04 108.12 37.44C108.76 38.4 109.2 39.4 109.44 40.44C109.68 41.48 109.8 42.92 109.8 44.76C109.8 46.52 109.44 48.48 108.72 50.64C108.08 52.8 106.72 55.8 104.64 59.64C101.68 65 97.8 70.88 93 77.28C88.28 83.6 82.92 89.88 76.92 96.12L68.16 97.08L66.96 96.12C66.56 93.08 66.12 89.56 65.64 85.56C65.16 81.48 64.68 77.4 64.2 73.32C63.72 69.16 63.24 65.44 62.76 62.16C60.04 67.52 57.08 73.16 53.88 79.08C50.76 85 47.56 90.68 44.28 96.12L34.56 97.08L33.24 96.12Z" fill="white"/>
</g>
<defs>
<clipPath id="clip0_3_32">
<rect width="128" height="128" fill="white"/>
</clipPath>
</defs>
</svg>
