<svg xmlns="http://www.w3.org/2000/svg" xmlns:xlink="http://www.w3.org/1999/xlink" viewBox="0 0 94 15.625" width="132.352" height="22"><mask id="m" fill="white" maskUnits="userSpaceOnUse" x="0" y="0" width="94" height="16"><path d="M86.227 12.372c-2.017 0-3.808-1.453-4.27-3.46H93.93s.064-.726.064-.983c0-4.259-3.483-7.724-7.764-7.724S78.465 3.67 78.465 7.93s3.463 7.643 7.764 7.643c4.3 0 6.811-3.152 7.438-5.433h-3.65s-1.16 2.233-3.79 2.233m.002-8.969c1.933 0 3.611 1.27 4.186 3.163h-8.373c.573-1.893 2.252-3.163 4.187-3.163M40.545 15.572a7.606 7.606 0 0 1-7.639-7.643c0-4.215 3.483-7.724 7.764-7.724s7.764 3.601 7.764 7.683v7.3H45.42v-2.436l-.22-.057c-.53 1.294-2.453 2.877-4.655 2.877m.125-12.169c-2.418 0-4.386 2.02-4.386 4.502s1.968 4.468 4.386 4.468 4.386-2.004 4.386-4.468-1.967-4.502-4.386-4.502m16.367 12.169a7.605 7.605 0 0 1-7.639-7.643c0-4.215 3.483-7.724 7.764-7.724s7.765 3.601 7.765 7.683v7.3h-3.015v-2.436l-.22-.057c-.53 1.294-2.453 2.877-4.655 2.877m.125-12.169c-2.417 0-4.385 2.02-4.385 4.502s1.967 4.468 4.385 4.468c2.42 0 4.386-2.004 4.386-4.468s-1.967-4.502-4.386-4.502m12.826 11.784L63.8.59h3.385l4.534 10.754L76.255.589h3.384l-6.186 14.598zM14.985 0C6.708 0-.002 6.802 0 15.19h3.828c0-6.286 4.956-11.383 11.157-11.383S26.142 8.904 26.142 15.19h3.828C29.972 6.802 23.26 0 14.985 0"/><path d="M11.007 15.548a3.04 3.04 0 0 0 3.046-3.03 3.04 3.04 0 0 0-3.046-3.03 3.04 3.04 0 0 0-3.046 3.03 3.04 3.04 0 0 0 3.046 3.03m7.961 0a3.04 3.04 0 0 0 3.046-3.03 3.04 3.04 0 0 0-3.046-3.03 3.04 3.04 0 0 0-3.046 3.03 3.04 3.04 0 0 0 3.046 3.03"/></mask><rect x="0" y="0" width="94" height="16" fill="white" mask="url(#m)"/></svg>