<svg xmlns="http://www.w3.org/2000/svg" xmlns:xlink="http://www.w3.org/1999/xlink" viewBox="10.0078125 10.0078125 214.69140625 40.984375" width="115.24418604651163" height="22"><mask id="m" fill="white" maskUnits="userSpaceOnUse" x="0" y="0" width="235" height="61"><path fill="white" d="M200.448 45.556c9.859 0 17.763-6.74 17.763-15.075s-7.904-15.018-17.763-15.018-17.764 6.74-17.764 15.018c.023 8.26 7.994 15.075 17.764 15.075M176.245 10h48.495v41h-48.495z"/><path fill="white" fill-rule="evenodd" d="M105.457 36.695c-2.842 5.219-9.015 8.86-16.232 8.86-9.57 0-17.408-6.457-17.763-14.492h42.033V10H65.023v41h48.494V36.695zM72.239 26.013h33.862c-2.487-6.983-9.148-10.55-16.853-10.55s-14.877 3.81-17.009 10.55" clip-rule="evenodd"/><path fill="white" d="M58.495 10H10v41h48.495V36.695h-8.038c-2.776 5.219-9.015 8.86-16.165 8.86-9.859 0-17.83-6.795-17.83-15.074s7.971-15.018 17.83-15.018c7.283 0 13.522 3.755 16.298 9.086h7.905zm111.688 26.695h-8.038c-2.42 5.388-8.948 8.804-16.365 8.804-9.569 0-17.63-5.857-17.63-15.018V10h-8.193v41h50.226z"/></mask><rect x="0" y="0" width="235" height="61" fill="white" mask="url(#m)"/></svg>