<svg xmlns="http://www.w3.org/2000/svg" xmlns:xlink="http://www.w3.org/1999/xlink" viewBox="10.0078125 10.0078125 142.25390625 40.984375" width="76.36046511627907" height="22"><mask id="m" fill="white" maskUnits="userSpaceOnUse" x="0" y="0" width="163" height="61"><path fill="white" d="M47.25 50.436h-5.906V21.698h5.906zm21.339-29.302q4.89 0 7.986 3.43 3.093 3.43 3.094 8.716v17.153h-5.905V34.18q0-3.318-2.138-5.483t-5.285-2.165q-3.544 0-5.793 2.165t-2.25 5.483v16.253h-5.906V21.698h5.906v7.423q1.18-3.71 3.91-5.85 2.726-2.137 6.384-2.137zm29.491 0q6.917 0 11.247 4.95t3.543 11.98H89.081q.62 3.488 3.207 5.653t6.24 2.164q2.811 0 5.034-1.377 2.221-1.377 3.458-3.741l4.95 2.194q-1.912 3.654-5.454 5.849T98.36 51q-6.467 0-10.855-4.273t-4.388-10.629q0-6.354 4.301-10.659 4.302-4.302 10.66-4.302zm0 5.119q-3.262 0-5.653 1.998-2.392 1.995-3.177 5.202h17.661q-.733-3.207-3.121-5.202-2.392-1.997-5.71-1.998m31.116-5.119q5.175 0 8.435 2.7 3.262 2.699 3.263 7.76v18.842h-5.905v-7.648Q132.344 51 124.36 51c-2.477 0-4.537-.74-6.188-2.221q-2.475-2.22-2.473-5.82-.001-4.218 2.981-6.327 2.98-2.107 7.592-2.615l5.567-.564q3.15-.282 3.15-2.812 0-2.08-1.603-3.317t-4.19-1.237c-1.725 0-3.254.45-4.471 1.35q-1.826 1.35-2.334 3.938l-5.849-1.408q.787-4.048 4.219-6.44 3.43-2.388 8.435-2.39zm-2.924 25.083q3.655-.001 6.184-2.447 2.53-2.445 2.53-5.71v-1.573q-.675 1.125-3.263 1.404l-5.454.674q-2.138.284-3.403 1.265-1.265.984-1.265 2.672t1.265 2.7 3.403 1.012zm-88.995 4.219H10V21.698h6.241v23.17h21.036zm109.184-29.302a5.567 5.567 0 1 0 0-11.133 5.567 5.567 0 0 0 0 11.133"/></mask><rect x="0" y="0" width="163" height="61" fill="white" mask="url(#m)"/></svg>