<svg xmlns="http://www.w3.org/2000/svg" xmlns:xlink="http://www.w3.org/1999/xlink" viewBox="0 0 669.1374999999999 159.2" width="92.46875" height="22"><mask id="m" fill="white" maskUnits="userSpaceOnUse" x="0" y="0" width="668.9" height="159.2"><path d="M80.3 0C35.9-.3-.3 35.9 0 80.3c.3 43.3 35.7 78.5 79 79 44.6.3 80.7-35.9 80.3-80.3-.4-43.3-35.8-78.7-79-79" style="fill:white"/><path d="M56.5 40.9c5 6.3 7.9 14.2 7.9 22.8 0 7.4-2.3 14.3-6 20.1H31.7z" fill="black"/><path d="M138 93.3c0 .3-.2.6-.5.8-1.8.8-7.7 3.5-10.3 7.1-6.4 8.8-11.3 23-22.2 23H59.2c-16.2 0-29.8-12.9-29.6-29.9 0-.5.3-.8.8-.8H52c.8 0 1.3.6 1.3 1.3V99c0 2.3 1.8 4 4 4h16.4v-9.5H62.4c6.4-8.2 10.3-18.5 10.3-29.8 0-12.5-4.8-24-12.7-32.5q7.2.75 13.5 2.7v-2.7c0-2.7 2.3-5 5-5s5 2.3 5 5v6.4c15.3 7.1 25.4 19 25.4 32.5 0 7.9-3.4 15.3-9.3 21.4-1.1 1.1-2.7 1.8-4.3 1.8H83.6v9.5h14.5c3.1 0 8.7-6 11.4-9.5 0 0 .2-.2.5-.3.3-.2 26.7-6.1 26.7-6.1.5-.2 1.1.3 1.1.8z" fill="black"/><path d="M244.9 111.6c-6.6 0-12.8-1.5-18.3-4.5s-9.9-7.1-13.2-12.4c-3.2-5.4-4.8-11.4-4.8-18.1q0-10.05 4.8-18c3.3-5.3 7.7-9.5 13.2-12.4q8.4-4.5 18.3-4.5c6.6 0 12.7 1.5 18.2 4.5 5.6 3 9.9 7.1 13.1 12.4q4.8 7.95 4.8 18c0 6.7-1.6 12.7-4.8 18.1-3.2 5.3-7.6 9.5-13.1 12.4-5.5 3-11.6 4.5-18.2 4.5m0-15.2q8.4 0 13.5-5.4t5.1-14.4-5.1-14.4-13.5-5.4c-5.7 0-10.3 1.8-13.7 5.3-3.4 3.6-5 8.4-5 14.5 0 6 1.7 10.9 5 14.5 3.4 3.5 8 5.3 13.7 5.3m63-32.1c1.7-2.5 4-4.6 7-6.1 3-1.6 6.4-2.3 10.4-2.3 4.6 0 8.8 1.1 12.6 3.4s6.7 5.5 8.9 9.7q3.3 6.3 3.3 14.7c0 8.4-1.1 10.5-3.3 14.8-2.1 4.2-5.1 7.5-8.9 9.8s-8 3.4-12.6 3.4c-3.9 0-7.4-.8-10.4-2.3-3-1.6-5.3-3.6-7-6V127h-17.2V56.7h17.2zm24.5 19.4c0-4.1-1.2-7.4-3.6-9.7-2.4-2.4-5.3-3.6-8.8-3.6-3.4 0-6.3 1.2-8.8 3.6-2.4 2.4-3.5 5.7-3.5 9.8s1.2 7.4 3.5 9.8c2.4 2.4 5.3 3.6 8.8 3.6s6.3-1.2 8.8-3.6q3.6-3.75 3.6-9.9m79.6-.8c0 1.6-.1 3.2-.3 4.9h-39q.45 5.1 3.3 7.8c2 1.7 4.5 2.6 7.4 2.6 4.3 0 7.3-1.7 9-5.2h18.3c-.9 3.6-2.7 6.8-5.1 9.6-2.4 2.9-5.5 5.1-9.2 6.7s-7.8 2.4-12.4 2.4c-5.5 0-10.4-1.1-14.7-3.4s-7.7-5.5-10.1-9.7-3.6-9.1-3.6-14.8c0-5.6 1.2-10.6 3.5-14.8 2.4-4.2 5.8-7.4 10.1-9.7s9.2-3.4 14.8-3.4c5.4 0 10.3 1.1 14.5 3.3s7.5 5.3 9.9 9.4 3.6 8.9 3.6 14.3m-17.6-4.4c0-2.9-1-5.1-3-6.8s-4.5-2.5-7.6-2.5c-2.9 0-5.3.8-7.4 2.4-1.9 1.6-3.2 3.9-3.6 6.9zm60.9-22.4c6.6 0 11.8 2.1 15.7 6.2 4 4.1 5.9 9.7 5.9 16.9v31.7h-17.1V81.4c0-3.6-1-6.4-2.9-8.5-1.9-2-4.6-3-7.9-3s-5.9 1-7.9 3c-1.9 2-2.9 4.8-2.9 8.5v29.4H421V56.7h17.2v7.2c1.7-2.4 4.1-4.3 7.1-5.6 3-1.5 6.3-2.2 10-2.2m59.3 55.5c-5.2 0-9.8-.8-13.9-2.4q-6.15-2.4-9.9-7.2c-2.4-3.2-3.7-7-3.8-11.5h18.3c.3 2.5 1.2 4.5 2.7 5.8s3.6 1.9 6 1.9c2.6 0 4.6-.6 6-1.7 1.5-1.2 2.2-2.8 2.2-4.8q0-2.55-1.8-4.2c-1.1-1.1-2.6-2-4.3-2.7s-4.1-1.5-7.3-2.4c-4.6-1.4-8.3-2.7-11.2-4.1q-4.35-2.1-7.5-6c-2.1-2.7-3.1-6.1-3.1-10.4 0-6.3 2.4-11.3 7.2-14.9q7.2-5.4 18.6-5.4c7.8 0 14.1 1.8 18.8 5.4 4.8 3.6 7.3 8.6 7.7 15h-18.6c-.1-2.2-1-3.9-2.5-5.1-1.5-1.3-3.5-1.9-5.9-1.9-2.1 0-3.8.6-5 1.7-1.3 1-1.9 2.6-1.9 4.6 0 2.2 1.1 3.9 3.2 5.1s5.5 2.6 10.1 4c4.6 1.5 8.3 2.9 11.1 4.3 2.9 1.4 5.4 3.3 7.5 5.9s3.1 5.9 3.1 10c0 3.9-1 7.4-3.1 10.6-2 3.2-5 5.7-8.9 7.6-3.9 1.8-8.5 2.8-13.8 2.8m89.3-28.7c0 1.6-.1 3.2-.3 4.9h-39q.45 5.1 3.3 7.8c2 1.7 4.5 2.6 7.4 2.6 4.3 0 7.3-1.7 9-5.2h18.3c-.9 3.6-2.7 6.8-5.1 9.6-2.4 2.9-5.5 5.1-9.2 6.7s-7.8 2.4-12.4 2.4c-5.5 0-10.4-1.1-14.7-3.4s-7.7-5.5-10.1-9.7-3.6-9.1-3.6-14.8c0-5.6 1.2-10.6 3.5-14.8 2.4-4.2 5.8-7.4 10.1-9.7s9.2-3.4 14.8-3.4c5.4 0 10.3 1.1 14.5 3.3s7.5 5.3 9.9 9.4 3.6 8.9 3.6 14.3m-17.6-4.4c0-2.9-1-5.1-3-6.8s-4.5-2.5-7.6-2.5c-2.9 0-5.3.8-7.4 2.4-1.9 1.6-3.2 3.9-3.6 6.9zm23.3 5.2c0-5.6 1.1-10.5 3.2-14.7 2.2-4.2 5.2-7.4 9-9.7s8-3.4 12.6-3.4c4 0 7.4.8 10.4 2.3 3 1.6 5.3 3.6 7 6.1v-7.7H669v54.2h-17.2v-7.7c-1.7 2.5-4 4.6-7.1 6.1-3 1.6-6.4 2.3-10.4 2.3-4.6 0-8.7-1.1-12.5-3.4s-6.8-5.6-9-9.8c-2.1-4.1-3.2-9.1-3.2-14.6m42.1.1c0-4.1-1.2-7.4-3.6-9.8s-5.2-3.6-8.7-3.6c-3.4 0-6.3 1.2-8.8 3.6-2.4 2.3-3.5 5.6-3.5 9.7s1.2 7.4 3.5 9.9c2.4 2.4 5.3 3.6 8.8 3.6q5.1 0 8.7-3.6c2.4-2.4 3.6-5.7 3.6-9.8" style="fill:white"/></mask><rect x="0" y="0" width="668.9" height="159.2" fill="white" mask="url(#m)"/></svg>