<svg xmlns="http://www.w3.org/2000/svg" xmlns:xlink="http://www.w3.org/1999/xlink" viewBox="0 0 2499.7109375 301" width="182.703125" height="22"><mask id="m" fill="white" maskUnits="userSpaceOnUse" x="0" y="0" width="2500" height="301"><path fill="white" d="M2052.07 293.44h75.72l30.79-219.802h6.38l47.7 219.802h87.92l105.95-219.802h5.55l-30.51 219.802h78.49L2500 6.724h-131.75l-100.4 207.479-45.21-207.479H2092l-39.94 286.716zm-185.27 6.718c103.17 0 149.49-26.041 157.53-90.722 6.94-56.561-23.02-83.159-95.69-89.877l-73.22-6.718c-27.46-2.521-35.23-8.401-34.67-21.281.83-21.562 22.74-30.52 70.18-30.52 47.43 0 62.96 8.958 62.13 35.837h79.87C2041.25 28.556 2001.31 0 1897.03 0c-104.29 0-147 27.16-155.05 90.997-6.65 52.921 19.14 79.237 90.14 85.961l78.49 7.282c25.52 2.239 35.78 9.52 33.28 26.041-2.77 20.161-21.63 28.837-71.83 28.837-52.7 0-70.45-9.802-68.23-36.681h-80.71c-8.05 68.321 34.39 97.721 143.67 97.721zm-275.69-6.718h81.26l39.95-286.716h-81.27zm-592.432 0h81.262l39.94-286.722h-81.27l-39.938 286.716zm-223.83 0h81.265l30.232-216.718h107.612l9.713-69.998H701.347l-9.709 69.998h113.436L774.842 293.44zM448.679 153.438l11.37-82.32h84.314c32.729 0 45.208 12.88 41.602 41.16-3.885 28.837-20.522 41.16-56.857 41.16h-80.435zM350.498 293.44h78.489l10.54-75.603h93.744c81.823 0 122.867-31.639 132.856-103.601C676.109 42.556 640.61 6.718 558.788 6.718H390.433l-39.941 286.716zm-196.647-61.879c-57.688 0-79.325-23.801-71.555-79.237 8.321-59.082 37.723-83.721 98.181-83.721s79.046 23.801 71.282 79.237c-8.321 58.237-36.608 83.721-97.908 83.721m-5.546 68.597c112.055 0 169.185-45.921 183.331-147.84C345.782 50.4 298.077 0 186.023 0 73.968 0 16.559 45.92 2.413 147.84-11.733 249.758 36.25 300.158 148.299 300.158zm983.225-6.718h75.72l30.78-219.802h6.38l47.71 219.802h87.92l105.95-219.802h5.54l-30.51 219.802h78.49l39.94-286.716h-131.74L1347.3 214.203 1302.09 6.724h-130.63l-39.94 286.716z"/></mask><rect x="0" y="0" width="2500" height="301" fill="white" mask="url(#m)"/></svg>