<svg xmlns="http://www.w3.org/2000/svg" xmlns:xlink="http://www.w3.org/1999/xlink" viewBox="0 0 1643.0302265625 595.773" width="60.671875" height="22"><mask id="m" fill="white" maskUnits="userSpaceOnUse" x="0" y="0" width="1643" height="595.773"><path d="M3.5.973c-1.1.6-2.3 1.6-2.7 2.2s-.8 30.2-.8 65.7c0 61.8.1 64.7 1.9 66.3 1.7 1.6 10.6 1.7 124.7 1.6 80.2 0 124.8.3 128.4 1 6.2 1.2 10.4 3.7 10.8 6.7.3 2.2-4.2 8.2-13.1 17.5-2.6 2.7-5.4 6.6-6.3 8.6-.8 2-3.2 5.5-5.3 7.7s-5 6.1-6.5 8.7c-1.4 2.6-11.9 14-23.3 25.5-11.3 11.4-22.1 23.1-24 26-1.8 2.9-4.5 6-5.9 7-1.4.9-3.8 4.1-5.4 7.2-1.5 3.1-4.2 6.9-6 8.6-1.8 1.6-4.2 5-5.5 7.5-1.4 2.8-10.1 12.3-23.3 25.5-11.5 11.5-22.3 23.3-24 26-1.7 2.8-4.5 6.1-6.1 7.3-1.7 1.2-4.4 4.8-6 8-1.6 3.1-4.3 7-6.1 8.7-1.7 1.6-4.1 4.8-5.2 7s-11.5 13.6-23.3 25.5c-11.7 11.8-22.5 23.5-24 25.8-1.4 2.4-4.2 5.8-6.2 7.5-1.9 1.7-4.7 5.5-6.1 8.5-1.4 2.9-3.6 6-4.8 6.9-1.3.8-3.8 4.1-5.6 7.2-1.7 3.1-7.3 9.9-12.4 15.1s-9.7 10.8-10.3 12.3c-.7 1.9-1.1 24-1.1 67 0 56.5.2 64.5 1.6 66.5l1.5 2.2h218.5c217.1 0 218.4 0 220.4-2 1.1-1.1 2-3 2-4.3.3-43.6-.1-125.8-.6-127-.3-.8-1.3-1.9-2.2-2.4-.9-.4-59.1-1-129.2-1.3-119.5-.5-127.7-.6-130.7-2.3-1.9-1-3.5-2.8-3.9-4.3-.6-2.2.5-3.7 8.1-11.2 4.8-4.8 9.8-10.6 11.1-12.9 1.4-2.3 4-5.3 5.9-6.7 1.9-1.5 4.4-4.8 5.5-7.4 1.2-2.6 3.8-6.5 5.9-8.7s4.9-6 6.3-8.5 11.7-13.5 22.7-24.5c11.5-11.3 21.7-22.4 23.7-25.6 1.9-3.1 4.8-6.6 6.4-7.8 1.7-1.2 4.3-4.7 5.9-7.9 1.6-3.1 4.3-7.1 6.1-8.7 1.7-1.7 4.1-4.8 5.2-7s9.1-11.2 17.8-20c8.6-8.8 16.9-18 18.5-20.5 1.5-2.5 4.5-5.7 6.6-7.2s4.8-4.6 6-6.9c3.4-6.7 10.5-16 14.3-18.7 2-1.3 5.3-5.4 7.5-9.1 2.6-4.3 9.2-11.7 18.7-21.1 8-8 15.4-16.1 16.4-18.1 1.1-2 4.2-5.6 7-7.9s6-6.1 7.2-8.4c3.2-6.2 9.3-14.1 13.8-17.7 2.2-1.8 5.7-6.2 7.9-9.8 2.1-3.6 5.4-8 7.1-9.6 1.8-1.7 3.6-4 4.1-5.3.5-1.2.9-31.1.9-66.4.1-63.6.1-64.2-2-66.2l-2.1-2.1-217.2-.2C61.8-.127 5 .073 3.5.973m631.5 151.7c-12.8.8-18.5 2.3-22.5 6.1-3.4 3.2-9.1 5-15.7 5-7.6.1-12.1 1.6-19.1 6.4-2.9 2-8.4 4.7-12.2 6.1-3.9 1.4-8.8 3.8-11 5.4s-6 3.8-8.5 5.1c-2.5 1.2-6.1 3.7-8 5.5-1.9 1.9-6.4 5.1-10 7.3-5.1 3-7.2 5.1-9.8 9.4-1.9 3.1-7.9 10.3-13.4 15.9-5.5 5.7-10.8 12-11.8 13.9s-3.6 4.9-5.8 6.7c-3.3 2.7-4.4 4.5-6.2 10.5-1.3 4-2.4 9.9-2.5 13-.1 4.9-.6 6.4-3.5 10-1.8 2.3-4.2 6.9-5.1 10.2-1 3.4-3.7 10.6-6 16.1-3.9 9.3-4.3 10.9-5 23-.4 7.1-1.3 18.6-2 25.5-1.4 15-1.4 14.4.1 29.5.6 6.6 1.4 20.8 1.8 31.5.6 17 1 19.9 2.7 22.7 7.2 11.4 7.5 12.1 8.6 20.4 1.4 11 2.5 14.5 6.4 19.9 1.8 2.5 4.3 7.6 5.5 11.5 1.6 4.7 3.4 8 5.5 10 1.8 1.6 4.3 5 5.5 7.5 1.3 2.5 4.7 7.1 7.6 10.3 3 3.2 5.4 6.3 5.4 6.9s4.8 6 10.8 12c7.6 7.8 12.6 12 17.2 14.4 8.9 4.8 22 13.2 26.3 17.1 4.2 3.7 18.1 8.3 25.2 8.3 4.9 0 7.4.9 11.8 4.6 1.5 1.3 6.5 3.4 11.1 4.8 6.9 2.1 10.4 2.6 19.5 2.6 9.7 0 12 .3 17.1 2.5 3.9 1.7 7.8 2.5 11.5 2.5 3 0 8.3.8 11.6 1.7 5.8 1.6 6.5 1.6 12.8 0 4.2-1.1 10.5-1.7 17.4-1.7 9.1 0 11.8-.4 17-2.4 9.4-3.7 13.5-4.6 21.5-4.6 8.6 0 16.9-2.6 22.3-7 5-3.9 7.7-4.9 17.4-6.1 9.9-1.2 13.2-2.2 17.6-5.5 1.9-1.4 5.5-3.6 8-4.9 2.7-1.4 5.6-4 7.2-6.4 1.5-2.3 4.5-5 6.9-6.2 2.6-1.3 13.1-11 26.3-24.3l22.1-22.1 2.2-7.6c1.5-5.3 3.4-9.1 6-12.3 4.5-5.4 9.2-19.5 9.2-27.4 0-4.1.6-5.6 3.6-9.5 3.2-4 3.8-5.8 5.1-14.4.8-5.4 1.8-11.6 2.3-13.8s1-9.4 1-16c0-10.1.4-12.7 2.2-16.5 3.2-6.8 3.6-24 .7-31.8-1.2-3.1-2.4-9.8-2.8-14.8-.5-5-1.1-9.6-1.5-10.3-.5-.7-1.1-6-1.5-11.9-.7-9.4-1.3-11.8-4.9-20.4-2.3-5.4-4.9-12.8-5.7-16.5-2-9.7-4-14.8-7.8-20.2-1.8-2.5-4.1-6.5-5.1-8.8s-3.4-5.6-5.3-7.5c-3.1-3-9.5-12.5-16.3-24.2-1.4-2.4-5.8-7.6-9.9-11.5-6.4-6.1-8.5-7.4-14-9.1-6-1.8-7.5-2.9-15.4-10.9-9.1-9.1-10.2-9.9-19.7-12.5-3.4-.9-7.4-3.1-10.3-5.6-2.7-2.2-6.8-4.5-9-5-2.3-.6-6.2-1.8-8.6-2.5-2.5-.8-6.9-1.5-9.8-1.5-3.6 0-7.4-.9-11.6-2.7-11.8-5-14.8-5.3-53.7-5.7-20.1-.3-42.1-.1-49 .3m59.2 97.2c3.9 1.7 10.5 3.8 14.7 4.6 4.2.9 8.7 2.1 10.1 2.8 4.1 2.1 18.7 17.1 21.6 22.3 1.5 2.6 4.2 6.8 6 9.3 4.6 6.4 9.4 19.8 9.4 26.3 0 4.3.6 6.2 3.3 10.2 3.8 5.8 4.3 9.8 5.3 43.9.5 18.3.3 23.8-1.2 32.5-.9 5.8-2 13.9-2.3 18.1-.4 4.8-1.2 8.4-2.4 10-.9 1.3-2.4 3.4-3.2 4.5-.9 1.2-2.4 5.2-3.4 8.9-1.4 5-2.9 7.7-5.9 10.9-2.2 2.2-5.4 6.8-7 10.1-3.6 7.2-10.1 13.7-16.2 16.3-2.5 1.1-6.7 3.8-9.3 6-2.5 2.2-5.4 4.3-6.4 4.6-9.7 2.9-45 3.7-52.3 1.1-2.3-.8-6.5-1.5-9.2-1.5s-5.8-.5-7-1.1c-4.5-2.4-28.1-27.6-31.9-34.1-2.2-3.7-4.4-7-4.9-7.3-2.2-1.4-4.9-8.5-5.5-14.6-.4-3.5-1.1-8-1.6-9.9-.6-1.9-1.4-7.6-1.9-12.5-.5-5.3-1.7-10.8-2.9-13.5-1.9-4.2-2.1-6.3-2.1-29.5s.2-25.3 2.1-29.5c3.8-8.3 4.8-12 6.4-24.1 1.9-14.1 2.5-16 7-21 1.9-2.1 4-5 4.8-6.6.8-1.5 3.3-4.5 5.5-6.5 2.2-2.1 5-5.5 6.2-7.6 1.3-2.3 4-4.9 6.4-6.3 2.2-1.2 5.6-3.9 7.3-6 4.4-5 14.2-8.9 22.6-8.9 4.3-.1 7.9-.8 11.7-2.5 8.2-3.6 17.1-3.4 26.2.6m236.3-95.7-2.5 2.5v435l2.2 2.1c2.1 2 3.2 2 62.7 2 60.2 0 66.5-.3 69-3.4.9-1.1 1.2-25.3 1.1-94.3 0-65.9.3-93.8 1.1-96.3.6-1.9 1.5-8.5 1.9-14.5.4-6.1 1.5-12.7 2.4-14.9.9-2.1 1.6-6.4 1.6-9.6 0-5.2.4-6.3 3.5-10 1.9-2.3 3.9-6 4.5-8.3s1.6-5.6 2.1-7.3c1.4-4.4 28.7-31.5 36.5-36.2 3.4-2 7.9-4.9 10.1-6.4 2.9-2.1 5.9-3 12.3-3.9 4.7-.6 10.7-1.7 13.4-2.5 3-.8 9.6-1.4 16.5-1.4 9.6 0 12.4-.4 16.1-2.1 2.9-1.4 6.9-2.2 11.2-2.3 3.9-.1 7.3-.8 8.3-1.6 4.5-3.7 4.5-3.6 4.5-65.5v-58.6l-2.5-2.4c-2.4-2.5-2.6-2.5-20.5-2.5-14.4 0-18.8.3-21.8 1.6-2 .9-7.1 2-11.4 2.4-6.1.5-8.5 1.3-12.3 3.8-2.6 1.7-7.5 4-10.9 5.2-3.8 1.2-7.4 3.3-9.2 5.1-1.6 1.7-5.1 4.2-7.9 5.6-6.5 3.3-16.9 13.7-19.4 19.4-1 2.4-3.3 5.7-5.1 7.4-1.7 1.6-4.5 5.6-6.1 8.7-3.5 6.9-6.4 9-11.6 8.6-6.4-.5-6.8-2.1-7-32.8-.1-14.6-.4-27.7-.7-29.1-1-5.4-.8-5.4-67.9-5.7l-61.7-.3zm487-1.4c-9.9.4-19.3 1.2-20.8 1.8-1.5.7-6 1.3-10 1.6-4.9.2-9.2 1.2-13.5 3-3.8 1.6-10.6 3.3-17 4.2-17 2.3-20.4 3.2-25.6 6.9-2.7 1.9-7.7 4.4-11.2 5.5-3.5 1.2-8.6 3.7-11.2 5.5-2.7 1.8-7.1 4.4-9.8 5.8-4.9 2.5-27.6 23.7-34.8 32.5-4.2 5.1-8.6 18.5-8.6 26 0 4.3-.6 5.8-3.7 9.9l-3.8 4.8-.3 12.5c-.3 11-.1 12.9 1.5 14.8l1.8 2.3h64.9c72.5-.1 67.2.5 69.5-7.4 1.8-6.1 8.1-20.7 10.3-23.9 2.1-3.1 13.1-11.1 18.6-13.6 3.2-1.5 7.4-1.7 30.7-1.7 37.4.1 43.4 1.5 48.7 12 1.1 2.2 3.6 6.2 5.5 8.9 9.2 13 9.6 26.2.9 36.4-2.4 2.8-5.5 7-6.9 9.5-3.1 5.2-5.4 6.3-16.2 7.6-9.8 1.2-12.8 2.3-17.2 6.1-3.9 3.5-4.7 3.7-17.8 4.5-5.5.3-13.1 1.3-17 2.1-3.8.9-10.6 1.9-15 2.3-4.9.4-9.9 1.6-13 2.9-2.7 1.3-9.2 2.9-14.5 3.8-5.2.8-14 2.4-19.5 3.4-5.5 1.1-11.7 1.9-13.9 1.9-2.5 0-5 .9-7.2 2.6-4.5 3.5-7 4.3-17.1 5.5-8.9 1.1-14.2 3.1-20.1 7.4-1.8 1.4-6.2 3.4-9.7 4.6s-8.2 3.4-10.3 5c-2.2 1.6-6.6 4.2-9.9 5.9-3.9 2-9.1 6.3-16 13.3-10.4 10.4-12.5 13.8-13.8 21.7-.5 3-1.9 5.7-4.5 8.5-2 2.3-4.3 5.1-4.9 6.4-3.9 7.5-5.5 38.1-2.7 52.5.8 4 1.7 12.4 1.9 18.7.7 14.8 2.1 20.9 6.1 26.8 1.8 2.6 4.2 6.8 5.3 9.3 1.5 3.2 6.9 9.4 18.5 21.1 16.6 16.7 17.3 17.1 27.4 19.8 2.3.5 6.8 3 9.9 5.5 4.2 3.3 6.9 4.6 10.4 5 2.5.3 8.5 1.2 13.2 2 4.8.8 11.2 1.5 14.3 1.5 3.8 0 7.6.8 11.6 2.5 5.9 2.5 6.3 2.5 34.8 2.5h28.9l3.6-2.4c6.1-4.1 7.3-4.6 15.9-5.7 10.3-1.3 14.5-2.5 18.3-5.4 1.7-1.2 5.7-3.6 9-5.3 6.1-3.2 12.9-9.3 26.8-24.1 8.4-9 10.4-9.7 13.9-5 3.1 4.1 3.8 9.2 3.8 29 0 16.7.2 18.8 1.8 20.2 1.7 1.5 7.8 1.7 66.5 1.7 63.4 0 64.7 0 66.7-2s2-3.3 2-154.8c0-132.6-.2-153.5-1.5-158.5-.8-3.2-1.5-8.2-1.5-11.2 0-3.6-1-7.9-2.9-12.7-1.5-4-3.1-9.1-3.5-11.3-1.2-6.9-4.7-16.5-7.1-19.3-1.2-1.5-3.6-5.4-5.3-8.7-2.1-4.2-6.9-9.9-15.6-19l-12.6-12.9-7.1-.7-7-.6-6.6-7.2c-9-9.9-13.1-12.1-22.2-12.1-4.6 0-9.2-.7-12.8-2-3.2-1.1-8.3-2-11.6-2-4.3 0-7.7-.8-12.7-3-3.7-1.6-9-3.4-11.6-3.9-6.3-1.2-60.5-1.9-83.9-1.1m83.4 244.4c4.6 2.4 5.1 5.1 5.1 25.4 0 18-1.6 33.7-3.9 39.2-.5 1.4-4.9 6.3-9.6 11-4.8 4.7-9.5 10.1-10.5 12-2.6 5-5.7 7.5-11.8 9.5-2.9.9-7.3 3.3-9.8 5.2s-5.7 3.8-7 4.3c-4.1 1.6-50.2 2.5-55.2 1.1-2.4-.7-6.4-3.1-9.2-5.6s-6.8-5.4-9-6.5c-7.1-3.6-11-14.4-11-30.5 0-14.3 1.7-17.9 13.8-30 10.2-10.1 11.8-11.1 21.8-13.1 8.3-1.5 10.2-2.4 15.6-6.7 3.6-2.8 4.3-3 17.3-3.8 15-.9 17.6-1.5 30.4-6.4 8.2-3.2 20.9-6.1 27.4-6.4 1.5-.1 4 .5 5.6 1.3"/></mask><rect x="0" y="0" width="1643" height="595.773" fill="white" mask="url(#m)"/></svg>