<svg xmlns="http://www.w3.org/2000/svg" xmlns:xlink="http://www.w3.org/1999/xlink" viewBox="9.609375 9.609375 298.8515625 103.78125" width="63.351851851851855" height="22"><mask id="m" fill="white" maskUnits="userSpaceOnUse" x="0" y="0" width="318" height="123"><g fill="white" clip-path="url(#a)"><path d="M10 111.292V93.095L52.713 28.55h-37.91V11.7h59.532v15.63l-44.5 67.122h46.251V111.3H10z"/><path d="M74.813 62.11c0-11.863 1.752-21.64 5.239-29.313 3.495-7.673 8.059-13.398 13.7-17.15C99.391 11.88 106.22 10 114.252 10c11.64 0 21.117 4.463 28.441 13.381 7.324 8.927 10.99 21.63 10.99 38.119s-3.88 29.69-11.639 39.063c-6.812 8.291-16.058 12.428-27.741 12.428s-21.057-4.094-27.868-12.291c-7.752-9.373-11.632-22.24-11.623-38.59m16.913-.679c0 11.46 2.17 20.051 6.503 25.785q6.499 8.6 16.127 8.6c6.409 0 11.81-2.84 16.058-8.523s6.366-14.412 6.366-26.196c0-11.777-2.068-20.085-6.204-25.613-4.128-5.52-9.546-8.292-16.229-8.292s-12.127 2.781-16.323 8.36c-4.205 5.563-6.298 14.189-6.298 25.88m66.566 49.86V11.7h34.56c8.836 0 15.152.892 18.938 2.678q5.691 2.688 9.332 9.304c2.436 4.412 3.649 9.708 3.649 15.862 0 7.794-1.854 14.06-5.58 18.823-3.709 4.764-8.991 7.75-15.853 8.97 3.521 2.532 6.426 5.313 8.725 8.325 2.299 3.013 5.436 8.412 9.401 16.206l9.879 19.432h-19.587l-11.888-21.672c-4.273-7.837-7.179-12.738-8.717-14.712s-3.162-3.33-4.871-4.077c-1.718-.747-4.461-1.125-8.256-1.125h-3.384v41.578zm16.374-57.474h12.178c7.444 0 12.178-.326 14.203-.987 2.034-.661 3.675-1.983 4.94-3.974 1.256-1.992 1.889-4.635 1.889-7.949s-.633-5.716-1.889-7.639c-1.265-1.922-2.974-3.244-5.145-3.974-1.538-.498-5.973-.747-13.323-.747h-12.853z"/><path d="M308 111.292h-17.793l-7.119-22.557h-32.551l-6.726 22.557H226.36L258.023 11.7h17.391zm-30.202-39.406-11.229-36.96-11.016 36.96z"/></g><defs><clipPath id="a"><path fill="white" d="M10 10h298v103H10z"/></clipPath></defs></mask><rect x="0" y="0" width="318" height="123" fill="white" mask="url(#m)"/></svg>