<svg xmlns="http://www.w3.org/2000/svg" xmlns:xlink="http://www.w3.org/1999/xlink" viewBox="0 0 170.015625 26" width="143.859375" height="22"><mask id="m" fill="white" maskUnits="userSpaceOnUse" x="0" y="0" width="170" height="26"><path fill="white" d="M22.74.001H0v3.33h21.075v8.6H7.63c-.919 0-1.665.746-1.665 1.666v6.58h3.33v-4.915H22.74c.92 0 1.665-.744 1.665-1.665V1.665C24.405.746 23.661 0 22.74 0z"/><path fill="white" d="M3.33 22.668h8.6v-4.77h3.331v6.437c0 .92-.746 1.665-1.665 1.665H1.666A1.665 1.665 0 0 1 0 24.335V7.632c0-.92.746-1.665 1.665-1.665H18.44v3.329H3.33z"/><path fill="white" d="M22.74.001H0v3.33h21.075v8.6H7.63c-.919 0-1.665.746-1.665 1.666v6.58h3.33v-4.915H22.74c.92 0 1.665-.744 1.665-1.665V1.665C24.405.746 23.661 0 22.74 0zm117.795.002h-18.824c-.913 0-1.654.74-1.654 1.654v22.668c0 .913.741 1.653 1.654 1.653h18.779a1.656 1.656 0 0 0 1.654-1.654V16.89h-3.308v5.78h-15.47V3.313h15.515v2.636h-11.223c-.914 0-1.654.74-1.654 1.654v10.772c0 .913.74 1.654 1.654 1.654h8.542v-3.31h-6.889V9.255h11.224c.913 0 1.653-.74 1.653-1.654V1.657c0-.914-.74-1.654-1.653-1.654"/><path fill="white" d="M3.33 22.668h8.6v-4.77h3.331v6.437c0 .92-.746 1.665-1.665 1.665H1.666A1.665 1.665 0 0 1 0 24.335V7.632c0-.92.746-1.665 1.665-1.665H18.44v3.329H3.33zm110.994 3.331h-5.965a1.665 1.665 0 0 1-1.665-1.666V1.665c0-.919.745-1.665 1.665-1.665h7.639v3.33h-5.974v19.338h2.636V5.967h3.33v18.366c0 .92-.745 1.666-1.666 1.666m-84.334 0h5.965c.921 0 1.666-.747 1.666-1.666V5.967h-3.33v16.701h-2.635V3.33h5.973V0H29.99c-.92 0-1.665.746-1.665 1.665v22.668c0 .92.746 1.666 1.665 1.666M78.246 1.665v22.668c0 .92-.744 1.666-1.663 1.666h-7.408v-3.33h5.742V3.33H66.19l-4.76 11.167a1.665 1.665 0 0 1-3.062 0L53.607 3.33H44.88v19.338h5.741v3.33h-7.407a1.664 1.664 0 0 1-1.663-1.665V1.665c0-.919.744-1.664 1.663-1.664h11.493c.668 0 1.27.398 1.532 1.012l3.66 8.585 3.658-8.585A1.67 1.67 0 0 1 65.09 0h11.493c.919 0 1.663.745 1.663 1.664"/><path fill="white" d="M72.281 20.032v-12.4c0-.92-.746-1.665-1.665-1.665h-1.547c-.667 0-1.27.397-1.531 1.01l-5.114 11.84h-5.05l-5.115-11.84a1.66 1.66 0 0 0-1.53-1.01H49.18c-.92 0-1.665.744-1.665 1.665v12.4h3.105v-9.47l4.574 10.573c.26.614.864 1.012 1.531 1.012h6.344c.667 0 1.271-.398 1.532-1.012l4.573-10.573v9.47zm27.299 2.636H85.635V5.967h-3.33v18.366c0 .92.744 1.666 1.664 1.666h17.277c.919 0 1.665-.745 1.665-1.666V16.78h-3.33z"/><path fill="white" d="M89.935 20.033c-.92 0-1.666-.746-1.666-1.665h-.001V3.33h-5.89V0h7.555c.92 0 1.665.746 1.665 1.665v15.04h5.346v3.328z"/><path fill="white" fill-rule="evenodd" d="M153.789 5.948h8.594c.896 0 1.622.726 1.622 1.62v10.846a1.62 1.62 0 0 1-1.622 1.62h-8.594a1.62 1.62 0 0 1-1.621-1.62V7.57c0-.895.726-1.621 1.621-1.621m1.622 3.241h5.351v7.605h-5.351z" clip-rule="evenodd"/><path fill="white" fill-rule="evenodd" d="M168.27.003h-20.369c-.913 0-1.655.74-1.655 1.654v22.668c0 .913.742 1.653 1.655 1.653h20.369c.914 0 1.654-.74 1.654-1.653V1.657c0-.914-.74-1.654-1.654-1.654m-1.653 22.668h-17.062V3.31h17.062z" clip-rule="evenodd"/></mask><rect x="0" y="0" width="170" height="26" fill="white" mask="url(#m)"/></svg>