<svg xmlns="http://www.w3.org/2000/svg" xmlns:xlink="http://www.w3.org/1999/xlink" viewBox="0 0 1940.534765625 469.1" width="91.0078125" height="22"><mask id="m" fill="white" maskUnits="userSpaceOnUse" x="0" y="0" width="1940.1" height="469.1"><path d="m747.7 152.6-3.5 52.2c-8.9-5-17.4-7-29.4-7-23.2 0-38.6 13.1-38.6 42.9v81.2h-55.6V150.3h55.6v31.3c6.6-19.3 24.3-35.9 47.5-35.9 10.5-.1 19.3 3 24 6.9m117.8 96.6v-3.5l-28.2 5.8c-17.4 3.5-28.2 7.7-28.2 21.3 0 10 7.7 16.2 19.7 16.2 20.5 0 36.7-15.4 36.7-39.8m54.9-36.7v62.6c0 8.9 3.9 12.8 10.8 12.8 5 0 9.3-.8 14.3-3.1v29.8c-8.5 6.2-19.3 11.2-36.3 11.2-20.5 0-35.5-10.8-40.6-30.1-9.7 19.7-30.9 30.1-57.6 30.1-34.4 0-56-17.4-56-46.8 0-32.9 24.7-46.8 62.6-54.1l47.9-8.5v-3.1c0-16.2-8.1-25.9-25.1-25.9-16.2 0-24.3 10-27.4 24.3l-51.8-3.9c5.8-36.7 33.2-62.2 82.3-62.2 44.8 0 76.9 20.1 76.9 66.9m44.8-62.2h55.6v171.6h-55.6zm-.4-20.9v-51h56.8v51zm148 105.1v87.3h-55.6V150.3h55.6V177c9.3-18.9 30.1-31.3 56-31.3 46.4 0 61.8 32.1 61.8 68.8v107.4H1175V228c0-24.7-8.1-38.3-28.6-38.3-22.4 0-33.6 17.8-33.6 44.8m207.9-.4v3.9c0 27.8 15.8 45.2 39 45.2 26.3 0 39-18.9 39-47.2 0-27.8-12.8-46.8-39-46.8-23.2.1-39 17.5-39 44.9M1318 291l-10 30.9h-43V78.4h55.6v102.8c8.5-20.5 28.2-35.6 58-35.6 50.2 0 76.5 40.2 76.5 90.4 0 50.6-26.3 90.4-77.7 90.4-28.5.1-50.1-14.6-59.4-35.4m211.7-54.9c0 28.6 11.2 48.3 35.9 48.3 24.3 0 36.3-19.7 36.3-48.3s-12-48.3-36.3-48.3c-24.7 0-35.9 19.7-35.9 48.3m128.7 0c0 53.3-37.9 90.4-92.7 90.4-54.9 0-92.3-37.1-92.3-90.4 0-53 37.5-90.4 92.3-90.4 54.8-.1 92.7 37.4 92.7 90.4m169.2-85.8 27.4 104.4h1.5l32.8-104.4h50.6l-54.5 171.6h-54.5l-27.8-103.6h-1.5l-27.4 103.6h-54.5l-54.5-171.6h55.6l32.8 104.4h1.5l27.4-104.4zM0 119.3v230.5-230.6z" fill="white"/><path d="M118.4.9H0v118.4C0 53.9 53 .9 118.4.9M349 468.2h118.4V349.8c0 65.4-53 118.4-118.4 118.4M0 349.8v118.4h118.4C53 468.2 0 415.2 0 349.8M349 .9c65.4 0 118.4 53 118.4 118.4V.9z" style="fill:none"/><path d="M349 .9H118.4C53 .9 0 53.9 0 119.2v230.6c0 65.4 53 118.4 118.4 118.4H349c65.4 0 118.4-53 118.4-118.4V119.3C467.4 53.9 414.4.9 349 .9m-90 383.6c0 3.2-2.6 5.8-5.8 5.8h-27.3c-12.9 0-23.4-10.5-23.4-23.4 0-55.9-45.3-101.3-101.3-101.3-12.9 0-23.4-10.5-23.4-23.4v-27.3c0-3.2 2.6-5.8 5.8-5.8h17.5c87.1 0 157.7 70.6 157.7 157.7v17.7zm65.2 0c0 3.2-2.6 5.8-5.8 5.8h-44.8c-3.2 0-5.8-2.6-5.8-5.8V367c0-92-74.5-166.5-166.5-166.5H83.7c-3.2 0-5.8-2.6-5.8-5.8v-44.8c0-3.2 2.6-5.8 5.8-5.8h17.5c123.1 0 223 99.8 223 223zm41.9 5.8h-27.3c-3.2 0-5.8-2.6-5.8-5.8V367c0-128-103.8-231.7-231.7-231.7H83.7c-3.2 0-5.8-2.6-5.8-5.8v-27.3c0-12.9 10.5-23.4 23.4-23.4 159.2 0 288.2 129 288.2 288.2 0 12.9-10.5 23.3-23.4 23.3" fill="white"/></mask><rect x="0" y="0" width="1940.1" height="469.1" fill="white" mask="url(#m)"/></svg>