<svg xmlns="http://www.w3.org/2000/svg" xmlns:xlink="http://www.w3.org/1999/xlink" viewBox="10.0078125 10.0078125 232.80078125 40.984375" width="124.96511627906976" height="22"><mask id="m" fill="white" maskUnits="userSpaceOnUse" x="0" y="0" width="253" height="61"><g fill="white" clip-path="url(#a)"><path d="M12.78 34.322a2.78 2.78 0 0 1-2.78-2.78V29.1c0-.574 0-.861.112-1.08.098-.194.255-.35.448-.448.219-.112.506-.112 1.08-.112h1.14c11.466 0 20.76 9.295 20.76 20.76v1.14c0 .574 0 .861-.111 1.08-.099.193-.255.35-.448.448-.22.112-.507.112-1.08.112h-2.443a2.78 2.78 0 0 1-2.78-2.78c0-7.675-6.222-13.898-13.898-13.898"/><path d="M35.408 48.22c0-12.497-10.131-22.628-22.628-22.628h-1.14c-.574 0-.861 0-1.08-.112a1.02 1.02 0 0 1-.448-.448C10 24.813 10 24.527 10 23.953V20.37c0-.574 0-.861.112-1.08.098-.193.255-.35.448-.448.219-.112.506-.112 1.08-.112h1.14c16.287 0 29.49 13.203 29.49 29.49v1.14c0 .574 0 .861-.111 1.08-.099.193-.255.35-.448.448-.22.112-.507.112-1.08.112h-3.583c-.574 0-.861 0-1.08-.112a1.02 1.02 0 0 1-.448-.448c-.112-.219-.112-.506-.112-1.08z"/><path d="M10 12.78A2.78 2.78 0 0 1 12.78 10C33.888 10 51 27.112 51 48.22A2.78 2.78 0 0 1 48.22 51h-2.442c-.574 0-.861 0-1.08-.112a1.02 1.02 0 0 1-.448-.448c-.112-.219-.112-.506-.112-1.08v-1.14c0-17.318-14.04-31.358-31.358-31.358h-1.14c-.574 0-.861 0-1.08-.111a1.02 1.02 0 0 1-.448-.448c-.112-.22-.112-.507-.112-1.08zm74.286 7.077-.462 6.932c-1.18-.668-2.31-.925-3.9-.925-3.08 0-5.133 1.746-5.133 5.7v10.78H67.4V19.55h7.39v4.159c.874-2.567 3.235-4.775 6.314-4.775 1.386 0 2.566.411 3.182.924M99.94 32.693v-.462l-3.746.77c-2.31.462-3.747 1.027-3.747 2.824 0 1.334 1.026 2.156 2.617 2.156 2.72 0 4.876-2.054 4.876-5.288m7.288-4.878v8.317c0 1.181.513 1.695 1.437 1.695.668 0 1.233-.103 1.9-.411v3.953c-1.13.822-2.567 1.49-4.825 1.49-2.72 0-4.722-1.438-5.389-4.006-1.283 2.619-4.106 4.005-7.647 4.005-4.568 0-7.443-2.31-7.443-6.212 0-4.364 3.285-6.212 8.315-7.188l6.364-1.13v-.41c0-2.156-1.078-3.44-3.336-3.44-2.155 0-3.234 1.335-3.644 3.235l-6.877-.514c.77-4.877 4.413-8.266 10.932-8.266 5.954 0 10.213 2.67 10.213 8.882m5.954-8.266h7.391v22.796h-7.391zm-.051-2.772V10h7.544v6.777zm19.657 13.965v11.603h-7.39V19.549h7.39v3.543c1.232-2.516 4.003-4.159 7.442-4.159 6.16 0 8.213 4.262 8.213 9.139v14.273h-7.392V29.869c0-3.286-1.077-5.083-3.797-5.083-2.977 0-4.466 2.362-4.466 5.956m27.613-.052v.514c0 3.696 2.105 6.007 5.184 6.007 3.49 0 5.184-2.516 5.184-6.264 0-3.697-1.694-6.212-5.184-6.212-3.079 0-5.184 2.31-5.184 5.955m-.359 7.547-1.334 4.108h-5.697V10h7.39v13.657c1.129-2.721 3.747-4.724 7.699-4.724 6.672 0 10.162 5.34 10.162 12.014 0 6.726-3.49 12.014-10.316 12.014-3.798 0-6.672-1.951-7.904-4.724m28.126-7.29c0 3.8 1.488 6.418 4.773 6.418 3.234 0 4.825-2.619 4.825-6.418s-1.591-6.417-4.825-6.417c-3.285 0-4.773 2.618-4.773 6.417m17.091 0c0 7.085-5.03 12.014-12.318 12.014s-12.267-4.929-12.267-12.014c0-7.034 4.979-12.014 12.267-12.014s12.318 4.98 12.318 12.014M227.74 19.55l3.644 13.862h.205l4.363-13.862h6.723l-7.236 22.796h-7.237l-3.696-13.76h-.205l-3.644 13.76h-7.237l-7.237-22.796h7.391l4.363 13.862h.205l3.644-13.862z"/></g><defs><clipPath id="a"><path fill="white" d="M10 10h232.675v41H10z"/></clipPath></defs></mask><rect x="0" y="0" width="253" height="61" fill="white" mask="url(#m)"/></svg>