<svg xmlns="http://www.w3.org/2000/svg" xmlns:xlink="http://www.w3.org/1999/xlink" viewBox="0 0 115.71875 28" width="90.921875" height="22"><mask id="m" fill="white" maskUnits="userSpaceOnUse" x="0" y="0" width="116" height="28"><path fill="white" fill-rule="evenodd" d="m29.642 18.15-5.905 8.256c-.86 1.204-2.537 1.734-4.673 1.562-2.967-.258-6.909-1.834-10.679-4.543a30 30 0 0 1-3.474-2.886C2.914 18.6 1.446 16.581.66 14.781c-.86-1.978-.888-3.726-.028-4.93l5.92-8.257C7.41.39 9.072-.14 11.222.032c2.968.243 6.895 1.834 10.679 4.53 3.77 2.708 6.537 5.933 7.712 8.657q.151.351.27.69c.584 1.693.517 3.179-.242 4.24z" clip-rule="evenodd"/><path fill="black" fill-rule="evenodd" d="M28.696 13.62c-1.132-2.594-3.784-5.647-7.396-8.228-3.598-2.58-7.339-4.113-10.162-4.343-1.72-.143-3.082.173-3.77 1.133l-.03.057c-.644.96-.5 2.322.173 3.87 1.132 2.61 3.784 5.662 7.382 8.242s7.339 4.114 10.162 4.344c1.692.128 3.025-.173 3.727-1.076l.044-.071c.688-.946.544-2.351-.13-3.928m-5.289.058c-.315.444-.96.573-1.748.501-1.42-.114-3.283-.889-5.09-2.178-1.805-1.29-3.138-2.81-3.697-4.114-.316-.731-.401-1.376-.086-1.82s.96-.574 1.763-.517c1.404.13 3.282.889 5.074 2.18 1.806 1.289 3.14 2.823 3.698 4.127.33.731.416 1.376.086 1.82z" clip-rule="evenodd"/><path fill="white" d="M43.986 26.696q-2.642 0-5.3-.977-2.658-.976-4.498-2.577l2.881-4.291a12.3 12.3 0 0 0 3.314 2.05q1.875.768 3.57.768 1.41 0 2.37-.512.977-.513.977-1.361 0-.305-.128-.545-.129-.24-.433-.448a4.5 4.5 0 0 0-.608-.352 5.3 5.3 0 0 0-.88-.336q-.561-.177-.977-.273a47 47 0 0 0-1.169-.304q-8.005-1.953-8.005-7.38 0-3.123 2.45-4.996Q40 3.273 44.018 3.273q2.513 0 4.642.769 2.145.768 3.49 2.017l-2.593 4.307q-1.025-.93-2.546-1.49a8.6 8.6 0 0 0-3.057-.576q-1.345 0-2.194.465t-.848 1.2q0 .786.992 1.297 1.01.512 2.77.929.592.128 1.089.272.511.128 1.409.448.912.304 1.633.673.736.367 1.569.96a6.7 6.7 0 0 1 1.377 1.281q.56.69.928 1.665.384.976.384 2.082 0 2.08-1.2 3.73-1.202 1.632-3.267 2.513-2.064.88-4.61.88zm24.879-1.937q-2.194 1.937-5.811 1.937-3.62 0-5.812-1.937-2.194-1.953-2.194-5.155V9.58h5.316v9.27q0 1.217.736 1.953.753.737 1.953.737 1.202 0 1.938-.737.752-.736.752-1.953V9.58h5.316v10.023q0 3.202-2.194 5.155zm11.399 1.937q-4.019 0-7.268-2.498l2.353-3.346q2.322 1.745 4.755 1.745 1.057 0 1.697-.288.64-.304.64-.832 0-.544-.672-.833-.655-.288-2.05-.576-.735-.16-1.184-.256a21 21 0 0 1-1.168-.353 8 8 0 0 1-1.201-.48q-.449-.256-1.025-.672a3.7 3.7 0 0 1-.88-.897 5.6 5.6 0 0 1-.529-1.185 5 5 0 0 1-.224-1.537q0-1.792.977-3.058.976-1.265 2.561-1.857t3.586-.592q3.699 0 6.789 2.161l-2.37 3.346q-2.257-1.408-4.226-1.408-.898 0-1.473.24-.56.24-.56.736 0 .528.64.817.64.272 2.049.56.689.128 1.169.24.48.113 1.184.336.705.225 1.185.48.497.257 1.04.673.546.4.881.897.337.495.545 1.2.225.69.224 1.521 0 2.706-2.097 4.211-2.082 1.505-5.348 1.505m19.917-17.515q2.834 0 4.563 1.713 1.745 1.713 1.745 4.547v10.855h-5.316v-9.078q0-1.312-.752-2.097-.753-.8-2.001-.8-1.377 0-2.226.816-.832.817-.832 2.145v9.014h-5.3V2.68h5.3v8.47q1.92-1.97 4.819-1.97zm12.183-1.409q-1.377 0-2.305-.912-.929-.93-.929-2.306 0-1.41.929-2.321.928-.93 2.305-.929 1.41 0 2.322.929.928.912.928 2.321 0 1.377-.928 2.306-.913.912-2.322.912m-2.641 18.524V9.58h5.299v16.715z"/><defs/></mask><rect x="0" y="0" width="116" height="28" fill="white" mask="url(#m)"/></svg>