<svg xmlns="http://www.w3.org/2000/svg" xmlns:xlink="http://www.w3.org/1999/xlink" viewBox="10.0078125 10.0078125 253.53125 40.984375" width="136.09302325581396" height="22"><mask id="m" fill="white" maskUnits="userSpaceOnUse" x="0" y="0" width="274" height="61"><path fill="white" fill-rule="evenodd" d="M133.831 13.89c-2.059 0-3.748 1.668-3.748 3.794a3.75 3.75 0 0 0 3.748 3.752 3.75 3.75 0 0 0 3.748-3.752c0-2.126-1.689-3.794-3.748-3.794m3.295 9.464h-6.549v22.473h6.549zm-44.767-8.63h6.383v8.63h4.901v6.004h-4.9v7.922c0 1.167.906 2.085 2.017 2.085h2.842v6.379h-2.842c-4.612 0-8.401-3.794-8.401-8.506v-7.921h-2.965v-6.004h2.965zm26.893 8.13c-2.965 0-5.313 1.25-6.219 3.21v-11.34h-6.548v31.062h6.548V33.194c0-2.627 1.688-4.461 4.077-4.461 2.43 0 3.789 1.584 3.789 4.253v12.841h6.549V32.152c0-5.837-2.966-9.298-8.196-9.298m27.222.459v3.085c.989-2.251 3.377-3.544 6.383-3.586q.68 0 1.73.125v6.255c-.659-.126-1.4-.209-2.182-.209-3.748 0-5.931 2.126-5.931 5.837v10.965h-6.548V23.313zm26.522 2.96c-.658-1.96-3.253-3.335-6.589-3.335-3.13 0-5.766 1.125-7.866 3.377-2.059 2.21-3.13 5.003-3.13 8.255s1.071 6.004 3.13 8.297c2.1 2.21 4.736 3.336 7.866 3.336 3.336 0 5.931-1.376 6.589-3.336v2.96h6.548V14.724h-6.548zm-1.318 12.3c-1.112 1.084-2.471 1.584-4.077 1.584-1.565 0-2.924-.542-3.995-1.584-1.111-1.126-1.647-2.46-1.647-4.003s.536-2.877 1.647-3.96c1.112-1.127 2.43-1.669 3.995-1.669 1.648 0 3.006.542 4.077 1.668 1.154 1.084 1.73 2.418 1.73 3.961q0 2.314-1.73 4.003m26.771-15.135 5.93 10.673 3.995-10.757h6.425l-9.143 23.766-7.207-12.925-7.208 12.925-9.101-23.766h6.425l3.953 10.757zm27.139-.626c-3.377 0-6.219 1.084-8.443 3.252-2.182 2.127-3.294 4.962-3.294 8.464v.209c0 3.502 1.112 6.337 3.294 8.463 2.266 2.085 5.148 3.17 8.773 3.17 3.377 0 6.136-.668 8.236-2.044v-5.795c-2.059 1.459-4.695 2.168-7.866 2.168-3.459 0-5.724-1.71-5.848-4.378h16.268a18 18 0 0 0 .123-2.168c0-3.21-1.07-5.879-3.13-8.047-2.059-2.21-4.818-3.294-8.113-3.294m-5.148 9.215c.042-1.043.577-1.918 1.565-2.627 1.03-.709 2.183-1.084 3.583-1.084 2.595 0 4.613 1.71 4.613 3.71zm32-9.09c3.13 0 5.766 1.126 7.825 3.378 2.1 2.251 3.171 4.961 3.171 8.213s-1.071 6.004-3.171 8.297c-2.059 2.21-4.695 3.336-7.825 3.336-3.336 0-5.931-1.376-6.589-3.336v2.96h-6.548V14.724h6.548v11.549c.658-1.96 3.253-3.335 6.589-3.335m-1.194 17.22c1.565 0 2.883-.5 3.995-1.584 1.111-1.126 1.647-2.46 1.647-4.003s-.536-2.877-1.647-3.96c-1.071-1.127-2.43-1.669-3.995-1.669-1.606 0-2.966.542-4.119 1.668-1.112 1.084-1.688 2.418-1.688 3.961s.576 2.877 1.688 4.003c1.112 1.042 2.471 1.584 4.119 1.584" clip-rule="evenodd"/><path fill="white" d="M45.521 10c.413.086.804.26 1.144.51.382.302.674.702.846 1.158q1.624 4.066 3.25 8.127 1.799 4.515 3.615 9.035c.63 1.579 1.259 3.16 1.9 4.736a2.62 2.62 0 0 1 0 2.038L50.769 49.34c-.364.91-1.025 1.474-1.996 1.622-1.208.182-2.29-.415-2.726-1.475-1.033-2.54-2.043-5.09-3.062-7.637l-5.18-12.958q-2.3-5.769-4.607-11.533c-.51-1.276-1.003-2.56-1.536-3.825a2.56 2.56 0 0 1 .78-3.02c.295-.23.637-.392 1.002-.475.044-.01.086-.026.129-.039zm-21.459 0c.135.038.271.07.403.116a2.42 2.42 0 0 1 1.53 1.424q1.773 4.404 3.53 8.814 1.78 4.446 3.558 8.893.87 2.18 1.748 4.36a2.53 2.53 0 0 1 0 1.966l-1.962 4.893-3.597 8.954A2.53 2.53 0 0 1 26.944 51a2.57 2.57 0 0 1-2.452-1.666c-1.109-2.813-2.24-5.618-3.362-8.426q-2.254-5.702-4.532-11.397l-4.635-11.593c-.585-1.463-1.165-2.93-1.759-4.39a2.55 2.55 0 0 1 1.269-3.312q.326-.132.668-.216zm53.462 24.984c-.327 1.106-.817 2.15-1.234 3.216q-1.81 4.55-3.64 9.097c-.28.694-.564 1.387-.835 2.085a2.57 2.57 0 0 1-2.385 1.61 2.56 2.56 0 0 1-2.376-1.625l-5.294-13.24-4.577-11.436q-2.242-5.602-4.48-11.2a2.53 2.53 0 0 1 1.785-3.44q.074-.02.146-.043h11.948c.037.011.073.026.111.034a2.54 2.54 0 0 1 1.86 1.596q1.043 2.621 2.09 5.227a23932 23932 0 0 1 5.472 13.689c.48 1.203 1.012 2.384 1.405 3.619z"/></mask><rect x="0" y="0" width="274" height="61" fill="white" mask="url(#m)"/></svg>