<svg xmlns="http://www.w3.org/2000/svg" xmlns:xlink="http://www.w3.org/1999/xlink" viewBox="10.9609375 10.0078125 350.75 40.984375" width="188.27906976744185" height="22"><mask id="m" fill="white" maskUnits="userSpaceOnUse" x="0" y="0" width="371" height="61"><path fill="white" d="M24.7 18.01c10.915-10.68 28.61-10.68 39.523 0l1.314 1.286c.545.534.545 1.4 0 1.934l-4.494 4.397a.71.71 0 0 1-.987 0l-1.808-1.768c-7.614-7.452-19.958-7.452-27.572 0l-1.936 1.894a.71.71 0 0 1-.988 0l-4.493-4.397a1.347 1.347 0 0 1 0-1.934zm48.816 9.095 3.999 3.913c.545.534.545 1.4 0 1.934L59.483 50.6a1.42 1.42 0 0 1-1.976 0L44.709 38.075a.354.354 0 0 0-.494 0L31.417 50.599a1.42 1.42 0 0 1-1.976 0L11.41 32.953a1.347 1.347 0 0 1 0-1.934l4-3.913a1.42 1.42 0 0 1 1.975 0L30.183 39.63a.354.354 0 0 0 .494 0l12.798-12.524a1.42 1.42 0 0 1 1.976 0L58.249 39.63a.355.355 0 0 0 .494 0L71.54 27.105a1.42 1.42 0 0 1 1.976 0m28.457 17.802 4.831-19.322c.286-1.065.532-2.211.859-4.012.246 1.8.533 2.947.737 4.012l4.176 19.322h8.638L128.5 16.25h-6.631l-4.012 17.603c-.41 1.72-.655 3.07-.942 5.076-.327-1.924-.655-3.357-1.023-5.035l-3.889-17.644h-8.679l-4.216 17.644a85 85 0 0 0-.983 5.035c-.327-2.006-.614-3.357-.982-5.035l-3.93-17.644h-6.919l7.246 28.656zm31.473.737c3.275 0 5.363-1.351 6.427-3.316a9.3 9.3 0 0 0-.164 1.842v.737h5.486v-11.83c0-5.65-2.579-8.925-8.884-8.925-5.444 0-9.006 3.03-9.333 7.205h6.017c.205-1.842 1.515-2.948 3.521-2.948 1.883 0 2.907 1.065 2.907 2.293 0 .9-.533 1.433-2.129 1.637l-2.866.328c-4.257.532-7.901 2.087-7.901 6.59 0 4.094 3.398 6.387 6.919 6.387m1.842-4.217c-1.597 0-2.784-.9-2.784-2.456 0-1.515 1.351-2.252 3.398-2.62l1.392-.246c1.187-.245 1.842-.45 2.251-.818v1.883c0 2.538-1.842 4.257-4.257 4.257m12.758-25.177v28.657h5.936V16.25zm9.37 0v28.657h5.936V16.25zm18.893 29.394c5.649 0 9.293-3.193 9.702-7.369h-5.976c-.288 1.842-1.844 2.866-3.726 2.866-2.539 0-4.381-2.047-4.422-4.872h14.246v-1.146c0-6.632-3.642-10.971-9.947-10.971-6.059 0-10.316 4.257-10.316 10.684 0 6.96 4.38 10.808 10.439 10.808m-4.462-13.264c.245-2.292 1.923-3.97 4.298-3.97 2.292 0 3.889 1.596 3.93 3.97zm26.85 12.936c1.31 0 2.58-.205 3.153-.368v-4.503a8.5 8.5 0 0 1-1.434.122c-2.168 0-2.947-1.228-2.947-3.233v-7.86h4.831v-4.626h-4.831v-7.123h-5.895v7.123h-4.34v4.626h4.34v8.678c0 4.749 2.374 7.164 7.123 7.164m20.037.328c8.106 0 13.019-4.75 13.632-11.586h-6.427c-.491 3.726-3.111 6.264-6.959 6.264-4.543 0-7.737-3.684-7.737-9.907 0-6.1 3.315-9.58 7.86-9.58 3.889 0 6.099 2.375 6.549 5.855h6.592c-.655-7.123-5.895-11.176-13.1-11.176-8.228 0-14.533 5.568-14.533 14.901 0 9.661 5.526 15.229 14.123 15.229m26.5 0c6.183 0 10.562-3.89 10.562-10.685 0-6.673-4.379-10.807-10.562-10.807-6.139 0-10.52 4.134-10.52 10.807 0 6.796 4.339 10.685 10.52 10.685m0-4.585c-2.742 0-4.503-2.252-4.503-6.1 0-3.93 1.843-6.14 4.503-6.14 2.702 0 4.545 2.21 4.545 6.14 0 3.848-1.801 6.1-4.545 6.1m18.839 3.848V33.158c0-2.497 1.554-4.34 3.764-4.34 2.089 0 3.317 1.597 3.317 4.258v11.83h5.935v-12.69c0-4.83-2.538-8.064-7.081-8.064-3.153 0-5.076 1.514-6.099 3.316.122-.737.164-1.31.164-1.843v-.777h-5.937v20.059zm22.504 0V33.158c0-2.497 1.555-4.34 3.766-4.34 2.087 0 3.315 1.597 3.315 4.258v11.83h5.937v-12.69c0-4.83-2.538-8.064-7.083-8.064-3.152 0-5.077 1.514-6.099 3.316.122-.737.164-1.31.164-1.843v-.777h-5.936v20.059zm25.789.737c5.649 0 9.292-3.193 9.701-7.369h-5.975c-.287 1.842-1.843 2.866-3.726 2.866-2.538 0-4.38-2.047-4.421-4.872h14.246v-1.146c0-6.632-3.644-10.971-9.947-10.971-6.059 0-10.316 4.257-10.316 10.684 0 6.96 4.379 10.808 10.438 10.808m-4.461-13.264c.245-2.292 1.923-3.97 4.297-3.97 2.293 0 3.89 1.596 3.93 3.97zm27.031 13.264c6.223 0 9.621-3.398 10.276-8.679h-5.937c-.203 2.21-1.473 4.094-4.134 4.094-2.701 0-4.543-2.497-4.543-6.182 0-4.012 2.129-6.059 4.665-6.059 2.499 0 3.727 1.802 3.89 3.89h5.936c-.45-4.872-3.767-8.556-9.866-8.556-5.935 0-10.644 3.93-10.644 10.725 0 6.714 3.972 10.767 10.357 10.767m23.115-.328c1.31 0 2.58-.205 3.153-.368v-4.503a8.5 8.5 0 0 1-1.433.122c-2.169 0-2.948-1.228-2.948-3.233v-7.86h4.831v-4.626h-4.831v-7.123h-5.895v7.123h-4.339v4.626h4.339v8.678c0 4.749 2.374 7.164 7.123 7.164"/></mask><rect x="0" y="0" width="371" height="61" fill="white" mask="url(#m)"/></svg>