<svg xmlns="http://www.w3.org/2000/svg" xmlns:xlink="http://www.w3.org/1999/xlink" viewBox="0 0 431.71875 72" width="131.9140625" height="22"><mask id="m" fill="white" maskUnits="userSpaceOnUse" x="0" y="0" width="432" height="72"><path d="M224.3 61.4c2.2 1.1 4.7 1.7 7.3 1.7 4.8 0 8.9-1.9 12.2-5.6 3.4-3.8 5.1-8.3 5.1-13.7 0-5.3-1.7-9.9-5.1-13.7-3.3-3.8-7.4-5.6-12.2-5.6-2.7 0-5.1.6-7.3 1.7-1.3.7-2.4 1.4-3.3 2.3-.6.6-1.8.2-1.8-.6v-18c0-.6-.4-1-1-1h-4.8c-.6 0-1 .4-1 1V61c0 .6.4 1 1 1h4.8c.6 0 1-.4 1-1v-1.2c0-.8 1.2-1.2 1.8-.6 1 .8 2.1 1.6 3.3 2.2m14.5-8.2c-2.2 2.5-5 3.7-8.2 3.7-3.3 0-6.1-1.2-8.3-3.6-2.2-2.5-3.3-5.6-3.3-9.5 0-3.8 1.1-6.9 3.3-9.4s5-3.7 8.3-3.7 6 1.2 8.2 3.7 3.3 5.6 3.3 9.4c.1 3.8-1.1 7-3.3 9.4m-63 4.5c3.5 3.7 7.9 5.5 13.2 5.5 3.7 0 6.9-.9 9.8-2.6 2.6-1.5 4.7-3.6 6.2-6.2.3-.5.1-1.2-.5-1.5l-4.1-2c-.5-.3-1.2-.1-1.5.4-2.4 3.7-5.7 5.6-9.7 5.6-3.2 0-5.9-1.1-8.2-3.3-2-1.9-3.2-4.4-3.5-7.4-.1-.7.5-1.2 1.1-1.2H205c.6 0 1.2-.5 1.2-1.1.2-5-1.4-10.6-4.8-14.2-3.2-3.5-7.4-5.3-12.8-5.3-5.2 0-9.5 1.9-12.9 5.6s-5 8.3-5 13.8c-.1 5.6 1.6 10.2 5.1 13.9m3.8-18.3c-.8 0-1.3-.7-1.1-1.4.7-2 1.8-3.7 3.2-4.9 1.9-1.6 4.1-2.4 6.7-2.4 3.1 0 5.6.8 7.4 2.5 1.6 1.3 2.5 3 2.9 5 .1.7-.4 1.3-1.1 1.3h-18zm-12.1-13.8c.7 0 1.2.7 1 1.4l-11 34.2c-.1.4-.6.7-1 .7h-5.4c-.5 0-.9-.3-1-.7L142.2 37c-.3-.9-1.6-.9-1.9 0l-7.8 24.2c-.1.4-.6.7-1 .7h-5.3c-.5 0-.9-.3-1-.7l-11-34.2c-.2-.7.3-1.4 1-1.4h4.9c.5 0 .9.3 1 .8l7 23.6c.3.9 1.6 1 1.9 0l7.8-23.7c.1-.4.6-.7 1-.7h5.5c.5 0 .9.3 1 .7l7.7 23.6c.3.9 1.6.9 1.9 0l6.9-23.6c.1-.5.6-.8 1-.8h4.7zm219.9 36.9c-3 0-5.4-.9-7.4-2.7-1.9-1.8-2.9-4.4-3-7.6V32.8c0-.6-.5-1-1-1h-4.4c-.6 0-1-.4-1-1v-4.2c0-.6.5-1 1-1h4.4c.6 0 1-.4 1-1V9.8c0-.6.5-1 1-1h4.8c.6 0 1 .4 1 1v14.8c0 .6.5 1 1 1h6.9c.6 0 1 .4 1 1v4.2c0 .6-.5 1-1 1h-6.9c-.6 0-1 .4-1 1v17.1c0 2.4.5 4.1 1.4 5 .9.8 2 1.3 3.2 1.3.5 0 1.1 0 1.6-.1.2 0 .3-.1.5-.1.6-.2 1.2.1 1.4.6l1.5 4.1c.2.5-.1 1.1-.6 1.2q-2.4.6-5.4.6m-99.9-14.9c0 4.5-1.7 8.2-5 11.1-3.3 3-7.3 4.5-12.2 4.5-3.8 0-7.2-1.1-10.3-3.4-2.8-2.2-4.9-4.9-6-8.3-.2-.5.1-1.1.6-1.3l4.1-1.7c.6-.3 1.3.1 1.6.7.8 2.2 2 4 3.5 5.3 1.8 1.5 4 2.2 6.5 2.2 2.8 0 5.2-.9 7.2-2.6 2-1.8 3-3.9 3-6.5s-1-4.6-3.1-6.4c-2-1.7-4.5-2.6-7.3-2.6h-3.2c-.6 0-1.1-.5-1.1-1.1v-4.1c0-.6.5-1.1 1.1-1.1h2.7c2.7 0 4.9-.7 6.7-2.2 1.7-1.5 2.6-3.5 2.6-5.9q0-3.3-2.4-5.4c-1.6-1.4-3.8-2.1-6.5-2.1-3.9 0-6.7 1.8-8.4 5.5-.3.6-.9.9-1.5.6l-4.2-1.8c-.6-.2-.8-.9-.6-1.4 1.2-2.7 2.9-4.9 5.3-6.6 2.7-1.9 5.8-2.9 9.4-2.9 4.5 0 8.3 1.3 11.4 4 3 2.6 4.5 5.9 4.5 10 0 4.3-1.8 8-5.3 10.5-.6.4-.6 1.3.1 1.7 3 1.7 4 3 4.7 4 1.3 2.1 2.1 4.5 2.1 7.3m14.9-1.7c-1.8 1.3-2.7 3-2.7 5 0 1.8.7 3.3 2.2 4.5s3.3 1.8 5.3 1.8c2.9 0 5.4-1.1 7.6-3.2 2.1-2 3.3-4.3 3.4-6.9 0-.3-.1-.7-.4-.9-2.1-1.5-4.9-2.2-8.5-2.2-2.7-.1-5.1.5-6.9 1.9m6-21.5c5 0 9 1.4 11.9 4.1s4.4 6.4 4.4 11.1V61c0 .6-.5 1-1 1h-4.8c-.6 0-1-.4-1-1v-4c-2.8 4.2-6.6 6.2-11.3 6.2-4 0-7.4-1.2-10.1-3.6s-4-5.3-4-8.9q0-5.7 4.2-9 4.35-3.3 11.4-3.3c3.3 0 6.1.5 8.5 1.5.7.3 1.5-.2 1.5-1-.2-2.2-.9-4.2-2.8-5.8-1.9-1.7-4.1-2.5-6.6-2.5-3.5 0-6.3 1.4-8.5 4.1-.3.4-.9.5-1.4.3l-4.3-2.7c-.5-.3-.6-1-.3-1.4 3.5-4.4 8.2-6.5 14.2-6.5M363.3 62c.6 0 1.1-.5 1.1-1.1V26.7c0-.6-.5-1.1-1.1-1.1h-4.7c-.6 0-1.1.5-1.1 1.1v19c0 3.1-.9 5.7-2.7 7.9s-4.1 3.3-6.8 3.3c-5.8 0-8.8-3-9-8.9V26.7c0-.6-.5-1.1-1.1-1.1h-4.7c-.6 0-1.1.5-1.1 1.1v21.8c0 4.7 1.2 8.3 3.6 10.9 2.4 2.5 5.9 3.8 10.3 3.8 2.3 0 4.6-.6 6.7-1.8 1.2-.7 2.3-1.4 3.1-2.3.5-.5 1.7-.2 1.7.6v1.2c0 .6.5 1.1 1.1 1.1zm37.3-53.2c-.6 0-1 .4-1 1V61c0 .6.5 1 1 1h4.8c.6 0 1-.4 1-1V42.1c0-3.1.9-5.7 2.8-8s4.3-3.5 7-3.5c5.8 0 8.7 3.3 8.7 9.8V61c0 .6.4 1 1 1h4.8c.6 0 1-.4 1-1V39.1q0-7.05-3.6-10.8-3.6-3.9-10.2-3.9c-2.3 0-4.6.6-6.8 1.8-1.2.7-2.2 1.4-3 2.3-.5.5-1.7.2-1.7-.6v-18c0-.6-.4-1-1-1h-4.8z" style="fill-rule:evenodd;clip-rule:evenodd;fill:white"/><path d="M77.2 57c-.5 2-3.3 2-3.9 0l-6.2-23.1c-.1-.4-.1-.9 0-1.4L72.6 12c.5-1.8 2.1-3.1 4-3.1h8.1c2.7 0 4.7 2.6 4 5.2zM24.1 33.9c.1-.4.1-.9 0-1.4L18.6 12c-.5-1.8-2.1-3.1-4-3.1H6.5c-2.7 0-4.7 2.6-4 5.2L14 57c.5 2 3.3 2 3.9 0zm17.4 27.8c-.2.7.3 1.3 1 1.3h6.1c.7 0 1.2-.7 1-1.3l-3.1-11.5c-.3-1.1-1.8-1.1-2.1 0z" fill="white"/><path d="M35.4 69c-.5 1.8-2.1 3-3.9 3h-8.3c-2.6 0-4.6-2.5-3.9-5.1L36.4 3.3c.5-2 2.2-3.3 4.2-3.3h9.9c2 0 3.7 1.3 4.2 3.3L71.8 67c.7 2.6-1.2 5.1-3.9 5.1h-8.3c-1.8 0-3.4-1.2-3.9-3l-8.3-31c-.5-1.9-3.2-1.9-3.8 0zm41.8-12c-.5 2-3.3 2-3.9 0l-6.2-23.1c-.1-.4-.1-.9 0-1.4L75 3c.5-1.8 2.1-3.1 4-3.1h8.1c2.7 0 4.7 2.6 4 5.2zM24.1 33.9c.1-.4.1-.9 0-1.4L16.2 3.1c-.5-1.8-2.1-3.1-4-3.1H4.1C1.4 0-.6 2.6.1 5.2L14 57c.5 2 3.3 2 3.9 0z" fill="white"/></mask><rect x="0" y="0" width="432" height="72" fill="white" mask="url(#m)"/></svg>