<svg xmlns="http://www.w3.org/2000/svg" xmlns:xlink="http://www.w3.org/1999/xlink" viewBox="0.4609375 0 186.91015625 58.30859375" width="70.52173913043478" height="22"><title>
  Logotypes/bat/logo-dark@1x
 </title><defs><linearGradient id="a" x1="0%" x2="100%" y1="50.706%" y2="50.706%"><stop offset="0%" stop-color="#f50"/><stop offset="40.988%" stop-color="#f50"/><stop offset="58.198%" stop-color="#ff2000"/><stop offset="100%" stop-color="#ff2000"/></linearGradient><linearGradient id="c" x1="2.148%" x2="100%" y1="50.706%" y2="50.706%"><stop offset="0%" stop-color="#ff452a"/><stop offset="100%" stop-color="#ff2000"/></linearGradient><path id="b" d="M38.184 5.781 33.183 0H15.615l-5.001 5.781s-4.392-1.243-6.466.87c0 0 5.856-.538 7.868 2.797 0 0 5.43 1.056 6.161 1.056.732 0 2.318-.621 3.782-1.118s2.44-.501 2.44-.501.976.004 2.44.5c1.464.498 3.05 1.12 3.782 1.12s6.16-1.057 6.16-1.057C38.794 6.113 44.65 6.65 44.65 6.65c-2.074-2.113-6.466-.87-6.466-.87"/></defs><g id="Branding" fill="none" fill-rule="evenodd" stroke="none" stroke-width="1"><g id="logo_brave" transform="translate(-46 -42)"><g id="Logo/Logotypes/brave/logo-dark" transform="translate(46 42)"><g id="Logotypes/brave/logo-dark" transform="translate(-3.91)"><g id="Group-5"><g id="Group-4" fill="#3b3e4f" transform="translate(66.476 11.495)"><path id="Shape" d="M.095 20.13V.09H1.98c1.537 0 2.782 1.266 2.782 2.828v8.91c3.022-2.74 5.592-3.838 9.018-3.908 6.57-.137 12.271 4.823 12.813 11.48.648 7.954-5.042 13.94-12.455 13.94C6 33.34.095 28.21.095 20.13m4.59 1.572c.46 4.14 4.35 7.56 8.451 7.627 5.344.083 8.985-3.457 8.985-8.695 0-5.237-3.56-8.694-8.753-8.694-5.551-.013-9.315 4.086-8.683 9.762"/><path d="M34.38 8.42v3.57c2.937-3.313 4.676-4.203 8.114-4.203 1 .001 1.998.083 2.985.244v4.74a12 12 0 0 0-3.234-.438c-2.488 0-4.578.828-6.109 2.393-1.344 1.37-1.743 2.443-1.743 4.596V32.52h-4.839V8.42zm12.248 7.97c.248-2.347.696-3.618 1.69-4.84 1.992-2.484 5.576-3.763 10.65-3.763 4.033 0 6.97.638 9.01 2.004 1.695 1.122 2.391 2.786 2.391 5.718V26.21c0 2.348.599 3.176 2.24 3.13q.551-.02 1.096-.1v3.226a7.1 7.1 0 0 1-2.538.39c-3.034 0-4.427-.928-5.372-3.62-2.985 2.787-6.073 3.959-10.5 3.959-5.922 0-9.555-2.737-9.555-7.188-.026-2.538 1.443-4.846 3.73-5.862 1.793-.783 2.888-1.027 8.012-1.565 4.379-.44 5.128-.539 6.37-.932 1.344-.439 1.943-1.172 1.943-2.393 0-2.592-2.138-3.763-6.618-3.763-4.236 0-6.42.852-7.295 3.03a2.89 2.89 0 0 1-2.668 1.855zm19.143 4.108a46.7 46.7 0 0 1-9.409 1.76c-4.33.438-5.673 1.27-5.673 3.469 0 2.442 1.991 3.726 5.922 3.726 3.234 0 5.673-.828 7.416-2.443 1.393-1.32 1.744-2.248 1.744-4.554zm19.615 12.019H84.14a2.85 2.85 0 0 1-2.583-1.632L71.118 8.42h2.9a4.26 4.26 0 0 1 3.923 2.555l6.964 16.147 7.197-16.21a4.26 4.26 0 0 1 3.902-2.508h2.635L87.956 30.91a2.85 2.85 0 0 1-2.57 1.607m16.524-10.653c.497 4.645 4.073 7.527 9.404 7.527 3.026 0 5.295-.915 6.7-2.741a4.3 4.3 0 0 1 3.38-1.656h2.807c-2.444 5.473-6.818 8.164-13.339 8.164-8.146 0-13.636-5.034-13.636-12.561s5.625-12.806 13.738-12.806c5.87 0 10.59 2.687 12.492 7.188.847 2.07 1.193 3.908 1.193 6.889zm17.815-3.726c-1.096-4.252-4.33-6.65-8.81-6.65s-7.714 2.398-8.859 6.65z"/></g><g id="Build-Icons/Release"><g id="Logo" transform="translate(4.51)"><path id="Head" fill="url(#a)" d="m47.09 13.985 1.342-3.356S46.724 8.764 44.65 6.65s-6.466-.87-6.466-.87L33.183 0H15.615l-5.001 5.781s-4.392-1.243-6.466.87S.366 10.63.366 10.63l1.342 3.356L0 18.956s5.023 19.384 5.612 21.75c1.159 4.662 1.952 6.464 5.246 8.825 3.293 2.362 9.271 6.464 10.247 7.085s2.196 1.68 3.294 1.68 2.318-1.059 3.294-1.68 6.953-4.723 10.247-7.085 4.087-4.163 5.246-8.824c.589-2.367 5.612-21.75 5.612-21.75z"/><path id="Face" fill="#fff" d="M24.399 36.279c.334 0 2.477.77 4.196 1.677 1.72.906 2.965 1.547 3.363 1.8.399.255.156.734-.207.995s-5.238 4.107-5.71 4.532c-.474.426-1.17 1.128-1.642 1.128-.473 0-1.168-.702-1.641-1.128s-5.348-4.27-5.711-4.532c-.363-.261-.606-.74-.208-.994.399-.254 1.645-.895 3.364-1.801 1.719-.907 3.861-1.677 4.196-1.677m.026-27.393c.164.004 1.09.05 2.414.5 1.464.497 3.05 1.118 3.782 1.118s6.16-1.056 6.16-1.056 6.434 7.923 6.434 9.617c0 1.693-.81 2.14-1.623 3.02l-4.824 5.22c-.456.493-1.407 1.242-.848 2.59.56 1.347 1.384 3.061.467 4.8-.917 1.74-2.488 2.9-3.494 2.708s-3.37-1.45-4.24-2.025c-.869-.575-3.624-2.89-3.624-3.775 0-.886 2.848-2.476 3.374-2.837s2.926-1.76 2.975-2.309c.05-.549.03-.71-.678-2.066s-1.983-3.166-1.77-4.37c.211-1.205 2.268-1.83 3.736-2.396 1.468-.564 4.294-1.63 4.647-1.797.353-.166.262-.324-.808-.427s-4.104-.514-5.472-.125-3.706.98-3.895 1.293c-.19.314-.356.324-.162 1.405.194 1.082 1.195 6.27 1.293 7.192s.287 1.53-.688 1.758c-.976.227-2.618.622-3.182.622s-2.206-.395-3.182-.622c-.975-.227-.785-.836-.688-1.758s1.098-6.11 1.293-7.192c.194-1.08.027-1.091-.162-1.405-.19-.313-2.527-.904-3.895-1.293s-4.403.022-5.472.125-1.161.261-.808.427 3.18 1.233 4.647 1.797c1.467.565 3.524 1.191 3.737 2.395.212 1.205-1.064 3.015-1.772 4.37-.708 1.357-.727 1.518-.677 2.067s2.448 1.947 2.975 2.309c.526.36 3.373 1.951 3.373 2.837 0 .885-2.754 3.2-3.624 3.775-.869.575-3.233 1.833-4.239 2.025s-2.577-.969-3.494-2.708-.092-3.453.466-4.8c.56-1.348-.39-2.097-.847-2.59l-4.824-5.22c-.814-.88-1.623-1.327-1.623-3.02s6.433-9.617 6.433-9.617 5.43 1.056 6.161 1.056c.732 0 2.318-.621 3.782-1.118 1.325-.45 2.25-.496 2.414-.5Z"/><use xlink:href="#b" id="Top-Head" fill="url(#c)"/></g></g></g></g></g></g></g></svg>