<svg version="1.1" id="Layer_1" xmlns:x="ns_extend;" xmlns:i="ns_ai;" xmlns:graph="ns_graphs;" xmlns="http://www.w3.org/2000/svg" xmlns:xlink="http://www.w3.org/1999/xlink" x="0px" y="0px" viewBox="0 0 668.9 159.2" style="enable-background:new 0 0 668.9 159.2;" xml:space="preserve">
 <style type="text/css">
  .st0{fill:#2081E2;}
	.st1{fill:#FFFFFF;}
	.st2{fill:#121212;}
 </style>
 <metadata>
  <sfw xmlns="ns_sfw;">
   <slices>
   </slices>
   <sliceSourceBounds bottomLeftOrigin="true" height="159.2" width="668.9" x="-314.6" y="63.6">
   </sliceSourceBounds>
  </sfw>
 </metadata>
 <g>
  <g>
   <path class="st0" d="M80.3,0C35.9-0.3-0.3,35.9,0,80.3c0.3,43.3,35.7,78.5,79,79c44.6,0.3,80.7-35.9,80.3-80.3
			C158.9,35.7,123.5,0.3,80.3,0z">
   </path>
   <g>
    <path class="st1" d="M56.5,40.9c5,6.3,7.9,14.2,7.9,22.8c0,7.4-2.3,14.3-6,20.1H31.7L56.5,40.9L56.5,40.9z">
    </path>
    <path class="st1" d="M138,93.3c0,0.3-0.2,0.6-0.5,0.8c-1.8,0.8-7.7,3.5-10.3,7.1c-6.4,8.8-11.3,23-22.2,23H59.2
				c-16.2,0-29.8-12.9-29.6-29.9c0-0.5,0.3-0.8,0.8-0.8H52c0.8,0,1.3,0.6,1.3,1.3v4.2c0,2.3,1.8,4,4,4h16.4v-9.5H62.4
				c6.4-8.2,10.3-18.5,10.3-29.8c0-12.5-4.8-24-12.7-32.5c4.8,0.5,9.3,1.4,13.5,2.7v-2.7c0-2.7,2.3-5,5-5c2.7,0,5,2.3,5,5v6.4
				c15.3,7.1,25.4,19,25.4,32.5c0,7.9-3.4,15.3-9.3,21.4c-1.1,1.1-2.7,1.8-4.3,1.8H83.6v9.5h14.5c3.1,0,8.7-6,11.4-9.5
				c0,0,0.2-0.2,0.5-0.3c0.3-0.2,26.7-6.1,26.7-6.1c0.5-0.2,1.1,0.3,1.1,0.8L138,93.3L138,93.3z">
    </path>
   </g>
  </g>
  <g>
   <path class="st2" d="M244.9,111.6c-6.6,0-12.8-1.5-18.3-4.5c-5.5-3-9.9-7.1-13.2-12.4c-3.2-5.4-4.8-11.4-4.8-18.1
			c0-6.7,1.6-12.7,4.8-18c3.3-5.3,7.7-9.5,13.2-12.4c5.6-3,11.7-4.5,18.3-4.5c6.6,0,12.7,1.5,18.2,4.5c5.6,3,9.9,7.1,13.1,12.4
			c3.2,5.3,4.8,11.3,4.8,18c0,6.7-1.6,12.7-4.8,18.1c-3.2,5.3-7.6,9.5-13.1,12.4C257.6,110.1,251.5,111.6,244.9,111.6z M244.9,96.4
			c5.6,0,10.1-1.8,13.5-5.4c3.4-3.6,5.1-8.4,5.1-14.4c0-6-1.7-10.8-5.1-14.4c-3.4-3.6-7.9-5.4-13.5-5.4c-5.7,0-10.3,1.8-13.7,5.3
			c-3.4,3.6-5,8.4-5,14.5c0,6,1.7,10.9,5,14.5C234.6,94.6,239.2,96.4,244.9,96.4z">
   </path>
   <path class="st2" d="M307.9,64.3c1.7-2.5,4-4.6,7-6.1c3-1.6,6.4-2.3,10.4-2.3c4.6,0,8.8,1.1,12.6,3.4c3.8,2.3,6.7,5.5,8.9,9.7
			c2.2,4.2,3.3,9.1,3.3,14.7s-1.1,10.5-3.3,14.8c-2.1,4.2-5.1,7.5-8.9,9.8c-3.8,2.3-8,3.4-12.6,3.4c-3.9,0-7.4-0.8-10.4-2.3
			c-3-1.6-5.3-3.6-7-6V127h-17.2V56.7h17.2V64.3z M332.4,83.7c0-4.1-1.2-7.4-3.6-9.7c-2.4-2.4-5.3-3.6-8.8-3.6
			c-3.4,0-6.3,1.2-8.8,3.6c-2.4,2.4-3.5,5.7-3.5,9.8c0,4.1,1.2,7.4,3.5,9.8c2.4,2.4,5.3,3.6,8.8,3.6s6.3-1.2,8.8-3.6
			C331.2,91.1,332.4,87.8,332.4,83.7z">
   </path>
   <path class="st2" d="M412,82.9c0,1.6-0.1,3.2-0.3,4.9h-39c0.3,3.4,1.4,6,3.3,7.8c2,1.7,4.5,2.6,7.4,2.6c4.3,0,7.3-1.7,9-5.2h18.3
			c-0.9,3.6-2.7,6.8-5.1,9.6c-2.4,2.9-5.5,5.1-9.2,6.7c-3.7,1.6-7.8,2.4-12.4,2.4c-5.5,0-10.4-1.1-14.7-3.4
			c-4.3-2.3-7.7-5.5-10.1-9.7c-2.4-4.2-3.6-9.1-3.6-14.8c0-5.6,1.2-10.6,3.5-14.8c2.4-4.2,5.8-7.4,10.1-9.7
			c4.3-2.3,9.2-3.4,14.8-3.4c5.4,0,10.3,1.1,14.5,3.3c4.2,2.2,7.5,5.3,9.9,9.4C410.8,72.7,412,77.5,412,82.9z M394.4,78.5
			c0-2.9-1-5.1-3-6.8c-2-1.7-4.5-2.5-7.6-2.5c-2.9,0-5.3,0.8-7.4,2.4c-1.9,1.6-3.2,3.9-3.6,6.9H394.4z">
   </path>
   <path class="st2" d="M455.3,56.1c6.6,0,11.8,2.1,15.7,6.2c4,4.1,5.9,9.7,5.9,16.9v31.7h-17.1V81.4c0-3.6-1-6.4-2.9-8.5
			c-1.9-2-4.6-3-7.9-3c-3.3,0-5.9,1-7.9,3c-1.9,2-2.9,4.8-2.9,8.5v29.4h-17.2V56.7h17.2v7.2c1.7-2.4,4.1-4.3,7.1-5.6
			C448.3,56.8,451.6,56.1,455.3,56.1z">
   </path>
   <path class="st2" d="M514.6,111.6c-5.2,0-9.8-0.8-13.9-2.4c-4.1-1.6-7.4-4-9.9-7.2c-2.4-3.2-3.7-7-3.8-11.5h18.3
			c0.3,2.5,1.2,4.5,2.7,5.8c1.5,1.3,3.6,1.9,6,1.9c2.6,0,4.6-0.6,6-1.7c1.5-1.2,2.2-2.8,2.2-4.8c0-1.7-0.6-3.1-1.8-4.2
			c-1.1-1.1-2.6-2-4.3-2.7c-1.7-0.7-4.1-1.5-7.3-2.4c-4.6-1.4-8.3-2.7-11.2-4.1c-2.9-1.4-5.4-3.4-7.5-6c-2.1-2.7-3.1-6.1-3.1-10.4
			c0-6.3,2.4-11.3,7.2-14.9c4.8-3.6,11-5.4,18.6-5.4c7.8,0,14.1,1.8,18.8,5.4c4.8,3.6,7.3,8.6,7.7,15h-18.6c-0.1-2.2-1-3.9-2.5-5.1
			c-1.5-1.3-3.5-1.9-5.9-1.9c-2.1,0-3.8,0.6-5,1.7c-1.3,1-1.9,2.6-1.9,4.6c0,2.2,1.1,3.9,3.2,5.1c2.1,1.2,5.5,2.6,10.1,4
			c4.6,1.5,8.3,2.9,11.1,4.3c2.9,1.4,5.4,3.3,7.5,5.9c2.1,2.6,3.1,5.9,3.1,10c0,3.9-1,7.4-3.1,10.6c-2,3.2-5,5.7-8.9,7.6
			C524.5,110.6,519.9,111.6,514.6,111.6z">
   </path>
   <path class="st2" d="M603.9,82.9c0,1.6-0.1,3.2-0.3,4.9h-39c0.3,3.4,1.4,6,3.3,7.8c2,1.7,4.5,2.6,7.4,2.6c4.3,0,7.3-1.7,9-5.2
			h18.3c-0.9,3.6-2.7,6.8-5.1,9.6c-2.4,2.9-5.5,5.1-9.2,6.7c-3.7,1.6-7.8,2.4-12.4,2.4c-5.5,0-10.4-1.1-14.7-3.4
			c-4.3-2.3-7.7-5.5-10.1-9.7c-2.4-4.2-3.6-9.1-3.6-14.8c0-5.6,1.2-10.6,3.5-14.8c2.4-4.2,5.8-7.4,10.1-9.7
			c4.3-2.3,9.2-3.4,14.8-3.4c5.4,0,10.3,1.1,14.5,3.3c4.2,2.2,7.5,5.3,9.9,9.4C602.7,72.7,603.9,77.5,603.9,82.9z M586.3,78.5
			c0-2.9-1-5.1-3-6.8c-2-1.7-4.5-2.5-7.6-2.5c-2.9,0-5.3,0.8-7.4,2.4c-1.9,1.6-3.2,3.9-3.6,6.9H586.3z">
   </path>
   <path class="st2" d="M609.6,83.7c0-5.6,1.1-10.5,3.2-14.7c2.2-4.2,5.2-7.4,9-9.7c3.8-2.3,8-3.4,12.6-3.4c4,0,7.4,0.8,10.4,2.3
			c3,1.6,5.3,3.6,7,6.1v-7.7h17.2v54.2h-17.2v-7.7c-1.7,2.5-4,4.6-7.1,6.1c-3,1.6-6.4,2.3-10.4,2.3c-4.6,0-8.7-1.1-12.5-3.4
			c-3.8-2.3-6.8-5.6-9-9.8C610.7,94.2,609.6,89.2,609.6,83.7z M651.7,83.8c0-4.1-1.2-7.4-3.6-9.8c-2.4-2.4-5.2-3.6-8.7-3.6
			c-3.4,0-6.3,1.2-8.8,3.6c-2.4,2.3-3.5,5.6-3.5,9.7s1.2,7.4,3.5,9.9c2.4,2.4,5.3,3.6,8.8,3.6c3.4,0,6.3-1.2,8.7-3.6
			C650.5,91.2,651.7,87.9,651.7,83.8z">
   </path>
  </g>
 </g>
</svg>