<svg width="2500" height="301" viewBox="0 0 2500 301" fill="none" xmlns="http://www.w3.org/2000/svg">
<path d="M2052.07 293.44H2127.79L2158.58 73.6384H2164.96L2212.66 293.44H2300.58L2406.53 73.6384H2412.08L2381.57 293.44H2460.06L2500 6.72424H2368.25L2267.85 214.203L2222.64 6.72424H2092L2052.06 293.44H2052.07ZM1866.8 300.158C1969.97 300.158 2016.29 274.117 2024.33 209.436C2031.27 152.875 2001.31 126.277 1928.64 119.559L1855.42 112.841C1827.96 110.32 1820.19 104.44 1820.75 91.5599C1821.58 69.9978 1843.49 61.0399 1890.93 61.0399C1938.36 61.0399 1953.89 69.9978 1953.06 96.8772H2032.93C2041.25 28.556 2001.31 0 1897.03 0C1792.74 0 1750.03 27.1608 1741.98 90.9971C1735.33 143.918 1761.12 170.234 1832.12 176.958L1910.61 184.24C1936.13 186.479 1946.39 193.76 1943.89 210.281C1941.12 230.442 1922.26 239.118 1872.06 239.118C1819.36 239.118 1801.61 229.316 1803.83 202.437H1723.12C1715.07 270.758 1757.51 300.158 1866.79 300.158H1866.8ZM1591.11 293.44H1672.37L1712.32 6.72424H1631.05L1591.11 293.44ZM998.678 293.44H1079.94L1119.88 6.71838H1038.61L998.672 293.434L998.678 293.44ZM774.848 293.44H856.113L886.345 76.722H993.957L1003.67 6.72424H701.347L691.638 76.722H805.074L774.842 293.44H774.848ZM448.679 153.438L460.049 71.1175H544.363C577.092 71.1175 589.571 83.9973 585.965 112.278C582.08 141.115 565.443 153.438 529.108 153.438H448.673H448.679ZM350.498 293.44H428.987L439.527 217.837H533.271C615.094 217.837 656.138 186.198 666.127 114.236C676.109 42.5556 640.61 6.71838 558.788 6.71838H390.433L350.492 293.434L350.498 293.44ZM153.851 231.561C96.1631 231.561 74.5257 207.76 82.2956 152.324C90.6173 93.2424 120.019 68.6025 180.477 68.6025C240.935 68.6025 259.523 92.4041 251.759 147.84C243.438 206.077 215.151 231.561 153.851 231.561ZM148.305 300.158C260.36 300.158 317.49 254.237 331.636 152.318C345.782 50.3996 298.077 0 186.023 0C73.9682 0 16.559 45.9206 2.4128 147.84C-11.7334 249.758 36.2509 300.158 148.299 300.158H148.305ZM1131.53 293.44H1207.25L1238.03 73.6384H1244.41L1292.12 293.44H1380.04L1485.99 73.6384H1491.53L1461.02 293.44H1539.51L1579.45 6.72424H1447.71L1347.3 214.203L1302.09 6.72424H1171.46L1131.52 293.44H1131.53Z" fill="#111111"/>
</svg>
