<?xml version="1.0" standalone="no"?>
<!DOCTYPE svg PUBLIC "-//W3C//DTD SVG 20010904//EN"
 "http://www.w3.org/TR/2001/REC-SVG-20010904/DTD/svg10.dtd">
<svg version="1.0" xmlns="http://www.w3.org/2000/svg"
 width="1643.000000pt" height="595.772761pt" viewBox="0 0 1643.000000 595.772761"
 preserveAspectRatio="xMidYMid meet">
<metadata>
Created by potrace 1.16, written by Peter Selinger 2001-2019
</metadata>
<g transform="translate(-308.000000,856.772761) scale(0.100000,-0.100000)"
fill="#000000" stroke="none">
<path d="M3115 8558 c-11 -6 -23 -16 -27 -22 -4 -6 -8 -302 -8 -657 0 -618 1
-647 19 -663 17 -16 106 -17 1247 -16 802 0 1248 -3 1284 -10 62 -12 104 -37
108 -67 3 -22 -42 -82 -131 -175 -26 -27 -54 -66 -63 -86 -8 -20 -32 -55 -53
-77 -21 -22 -50 -61 -65 -87 -14 -26 -119 -140 -233 -255 -113 -114 -221 -231
-240 -260 -18 -29 -45 -60 -59 -70 -14 -9 -38 -41 -54 -72 -15 -31 -42 -69
-60 -86 -18 -16 -42 -50 -55 -75 -14 -28 -101 -123 -233 -255 -115 -115 -223
-233 -240 -260 -17 -28 -45 -61 -61 -73 -17 -12 -44 -48 -60 -80 -16 -31 -43
-70 -61 -87 -17 -16 -41 -48 -52 -70 -11 -22 -115 -136 -233 -255 -117 -118
-225 -235 -240 -258 -14 -24 -42 -58 -62 -75 -19 -17 -47 -55 -61 -85 -14 -29
-36 -60 -48 -69 -13 -8 -38 -41 -56 -72 -17 -31 -73 -99 -124 -151 -51 -52
-97 -108 -103 -123 -7 -19 -11 -240 -11 -670 0 -565 2 -645 16 -665 l15 -22
2185 0 c2171 0 2184 0 2204 20 11 11 20 30 20 43 3 436 -1 1258 -6 1270 -3 8
-13 19 -22 24 -9 4 -591 10 -1292 13 -1195 5 -1277 6 -1307 23 -19 10 -35 28
-39 43 -6 22 5 37 81 112 48 48 98 106 111 129 14 23 40 53 59 67 19 15 44 48
55 74 12 26 38 65 59 87 21 22 49 60 63 85 14 25 117 135 227 245 115 113 217
224 237 256 19 31 48 66 64 78 17 12 43 47 59 79 16 31 43 71 61 87 17 17 41
48 52 70 11 22 91 112 178 200 86 88 169 180 185 205 15 25 45 57 66 72 21 15
48 46 60 69 34 67 105 160 143 187 20 13 53 54 75 91 26 43 92 117 187 211 80
80 154 161 164 181 11 20 42 56 70 79 28 23 60 61 72 84 32 62 93 141 138 177
22 18 57 62 79 98 21 36 54 80 71 96 18 17 36 40 41 53 5 12 9 311 9 664 1
636 1 642 -20 662 l-21 21 -2172 2 c-1609 2 -2177 0 -2192 -9z"/>
<path d="M9430 7041 c-128 -8 -185 -23 -225 -61 -34 -32 -91 -50 -157 -50 -76
-1 -121 -16 -191 -64 -29 -20 -84 -47 -122 -61 -39 -14 -88 -38 -110 -54 -22
-16 -60 -38 -85 -51 -25 -12 -61 -37 -80 -55 -19 -19 -64 -51 -100 -73 -51
-30 -72 -51 -98 -94 -19 -31 -79 -103 -134 -159 -55 -57 -108 -120 -118 -139
-10 -19 -36 -49 -58 -67 -33 -27 -44 -45 -62 -105 -13 -40 -24 -99 -25 -130
-1 -49 -6 -64 -35 -100 -18 -23 -42 -69 -51 -102 -10 -34 -37 -106 -60 -161
-39 -93 -43 -109 -50 -230 -4 -71 -13 -186 -20 -255 -14 -150 -14 -144 1 -295
6 -66 14 -208 18 -315 6 -170 10 -199 27 -227 72 -114 75 -121 86 -204 14
-110 25 -145 64 -199 18 -25 43 -76 55 -115 16 -47 34 -80 55 -100 18 -16 43
-50 55 -75 13 -25 47 -71 76 -103 30 -32 54 -63 54 -69 0 -6 48 -60 108 -120
76 -78 126 -120 172 -144 89 -48 220 -132 263 -171 42 -37 181 -83 252 -83 49
0 74 -9 118 -46 15 -13 65 -34 111 -48 69 -21 104 -26 195 -26 97 0 120 -3
171 -25 39 -17 78 -25 115 -25 30 0 83 -8 116 -17 58 -16 65 -16 128 0 42 11
105 17 174 17 91 0 118 4 170 24 94 37 135 46 215 46 86 0 169 26 223 70 50
39 77 49 174 61 99 12 132 22 176 55 19 14 55 36 80 49 27 14 56 40 72 64 15
23 45 50 69 62 26 13 131 110 263 243 l221 221 22 76 c15 53 34 91 60 123 45
54 92 195 92 274 0 41 6 56 36 95 32 40 38 58 51 144 8 54 18 116 23 138 5 22
10 94 10 160 0 101 4 127 22 165 32 68 36 240 7 318 -12 31 -24 98 -28 148 -5
50 -11 96 -15 103 -5 7 -11 60 -15 119 -7 94 -13 118 -49 204 -23 54 -49 128
-57 165 -20 97 -40 148 -78 202 -18 25 -41 65 -51 88 -10 23 -34 56 -53 75
-31 30 -95 125 -163 242 -14 24 -58 76 -99 115 -64 61 -85 74 -140 91 -60 18
-75 29 -154 109 -91 91 -102 99 -197 125 -34 9 -74 31 -103 56 -27 22 -68 45
-90 50 -23 6 -62 18 -86 25 -25 8 -69 15 -98 15 -36 0 -74 9 -116 27 -118 50
-148 53 -537 57 -201 3 -421 1 -490 -3z m592 -972 c39 -17 105 -38 147 -46 42
-9 87 -21 101 -28 41 -21 187 -171 216 -223 15 -26 42 -68 60 -93 46 -64 94
-198 94 -263 0 -43 6 -62 33 -102 38 -58 43 -98 53 -439 5 -183 3 -238 -12
-325 -9 -58 -20 -139 -23 -181 -4 -48 -12 -84 -24 -100 -9 -13 -24 -34 -32
-45 -9 -12 -24 -52 -34 -89 -14 -50 -29 -77 -59 -109 -22 -22 -54 -68 -70
-101 -36 -72 -101 -137 -162 -163 -25 -11 -67 -38 -93 -60 -25 -22 -54 -43
-64 -46 -97 -29 -450 -37 -523 -11 -23 8 -65 15 -92 15 -27 0 -58 5 -70 11
-45 24 -281 276 -319 341 -22 37 -44 70 -49 73 -22 14 -49 85 -55 146 -4 35
-11 80 -16 99 -6 19 -14 76 -19 125 -5 53 -17 108 -29 135 -19 42 -21 63 -21
295 0 232 2 253 21 295 38 83 48 120 64 241 19 141 25 160 70 210 19 21 40 50
48 66 8 15 33 45 55 65 22 21 50 55 62 76 13 23 40 49 64 63 22 12 56 39 73
60 44 50 142 89 226 89 43 1 79 8 117 25 82 36 171 34 262 -6z"/>
<path d="M12385 7026 l-25 -25 0 -2175 0 -2175 22 -21 c21 -20 32 -20 627 -20
602 0 665 3 690 34 9 11 12 253 11 943 0 659 3 938 11 963 6 19 15 85 19 145
4 61 15 127 24 149 9 21 16 64 16 96 0 52 4 63 35 100 19 23 39 60 45 83 6 23
16 56 21 73 14 44 287 315 365 362 34 20 79 49 101 64 29 21 59 30 123 39 47
6 107 17 134 25 30 8 96 14 165 14 96 0 124 4 161 21 29 14 69 22 112 23 39 1
73 8 83 16 45 37 45 36 45 655 l0 586 -25 24 c-24 25 -26 25 -205 25 -144 0
-188 -3 -218 -16 -20 -9 -71 -20 -114 -24 -61 -5 -85 -13 -123 -38 -26 -17
-75 -40 -109 -52 -38 -12 -74 -33 -92 -51 -16 -17 -51 -42 -79 -56 -65 -33
-169 -137 -194 -194 -10 -24 -33 -57 -51 -74 -17 -16 -45 -56 -61 -87 -35 -69
-64 -90 -116 -86 -64 5 -68 21 -70 328 -1 146 -4 277 -7 291 -10 54 -8 54
-679 57 l-617 3 -25 -25z"/>
<path d="M17255 7040 c-99 -4 -193 -12 -208 -18 -15 -7 -60 -13 -100 -16 -49
-2 -92 -12 -135 -30 -38 -16 -106 -33 -170 -42 -170 -23 -204 -32 -256 -69
-27 -19 -77 -44 -112 -55 -35 -12 -86 -37 -112 -55 -27 -18 -71 -44 -98 -58
-49 -25 -276 -237 -348 -325 -42 -51 -86 -185 -86 -260 0 -43 -6 -58 -37 -99
l-38 -48 -3 -125 c-3 -110 -1 -129 15 -148 l18 -23 649 0 c725 1 672 -5 695
74 18 61 81 207 103 239 21 31 131 111 186 136 32 15 74 17 307 17 374 -1 434
-15 487 -120 11 -22 36 -62 55 -89 92 -130 96 -262 9 -364 -24 -28 -55 -70
-69 -95 -31 -52 -54 -63 -162 -76 -98 -12 -128 -23 -172 -61 -39 -35 -47 -37
-178 -45 -55 -3 -131 -13 -170 -21 -38 -9 -106 -19 -150 -23 -49 -4 -99 -16
-130 -29 -27 -13 -92 -29 -145 -38 -52 -8 -140 -24 -195 -34 -55 -11 -117 -19
-139 -19 -25 0 -50 -9 -72 -26 -45 -35 -70 -43 -171 -55 -89 -11 -142 -31
-201 -74 -18 -14 -62 -34 -97 -46 -35 -12 -82 -34 -103 -50 -22 -16 -66 -42
-99 -59 -39 -20 -91 -63 -160 -133 -104 -104 -125 -138 -138 -217 -5 -30 -19
-57 -45 -85 -20 -23 -43 -51 -49 -64 -39 -75 -55 -381 -27 -525 8 -40 17 -124
19 -187 7 -148 21 -209 61 -268 18 -26 42 -68 53 -93 15 -32 69 -94 185 -211
166 -167 173 -171 274 -198 23 -5 68 -30 99 -55 42 -33 69 -46 104 -50 25 -3
85 -12 132 -20 48 -8 112 -15 143 -15 38 0 76 -8 116 -25 59 -25 63 -25 348
-25 l289 0 36 24 c61 41 73 46 159 57 103 13 145 25 183 54 17 12 57 36 90 53
61 32 129 93 268 241 84 90 104 97 139 50 31 -41 38 -92 38 -290 0 -167 2
-188 18 -202 17 -15 78 -17 665 -17 634 0 647 0 667 20 20 20 20 33 20 1548 0
1326 -2 1535 -15 1585 -8 32 -15 82 -15 112 0 36 -10 79 -29 127 -15 40 -31
91 -35 113 -12 69 -47 165 -71 193 -12 15 -36 54 -53 87 -21 42 -69 99 -156
190 l-126 129 -71 7 -70 6 -66 72 c-90 99 -131 121 -222 121 -46 0 -92 7 -128
20 -32 11 -83 20 -116 20 -43 0 -77 8 -127 30 -37 16 -90 34 -116 39 -63 12
-605 19 -839 11z m834 -2444 c46 -24 51 -51 51 -254 0 -180 -16 -337 -39 -392
-5 -14 -49 -63 -96 -110 -48 -47 -95 -101 -105 -120 -26 -50 -57 -75 -118 -95
-29 -9 -73 -33 -98 -52 -25 -19 -57 -38 -70 -43 -41 -16 -502 -25 -552 -11
-24 7 -64 31 -92 56 -28 25 -68 54 -90 65 -71 36 -110 144 -110 305 0 143 17
179 138 300 102 101 118 111 218 131 83 15 102 24 156 67 36 28 43 30 173 38
150 9 176 15 304 64 82 32 209 61 274 64 15 1 40 -5 56 -13z"/>
</g>
</svg>
