<svg xmlns="http://www.w3.org/2000/svg" xmlns:xlink="http://www.w3.org/1999/xlink" viewBox="10.0078125 10.0078125 146.78125 40.984375" width="78.79069767441861" height="22"><path fill="#000" d="M45.694 22.616 23.728 10l-2.745 1.578v3.153l-2.746-1.578-2.746 1.578v3.153l-2.745-1.578L10 17.884v25.232l2.746 1.578 2.745-1.578v3.153l2.746 1.578 2.746-1.578v3.153L23.729 51l21.965-12.616v-3.153l-2.746-1.578 2.746-1.578v-3.153l-2.746-1.578 2.746-1.578zM15.491 39.963l-2.745 1.578V19.463l2.745 1.578zm8.238 1.575v-3.154l10.982-6.306 2.746 1.578zM31.966 30.5l-8.237 4.731V25.77zm2.745-1.578L23.73 22.616v-3.154l13.728 7.885zM18.237 16.306l2.746 1.578v3.154l-2.746-1.579zm0 6.31 2.746 1.578v12.615l-2.746 1.578zm0 18.922 2.746-1.579v3.154l-2.746 1.578zm24.711-4.732-19.22 11.038V44.69l16.475-9.463zm0-6.306-2.745 1.578-2.746-1.578 2.746-1.578zm-2.745-4.731-16.475-9.463v-3.153l19.22 11.038zM58.735 38.66h-2.43v-16.6h7.41c3.402 0 5.466 2.015 5.466 4.98s-2.064 4.98-5.465 4.98h-4.98v6.642zm8.017-11.621c0-1.66-.972-2.965-3.036-2.965h-4.98v5.93h4.98c2.064 0 3.036-1.306 3.036-2.965m3.328 2.49c.243-1.97 1.943-3.558 5.37-3.558 2.09 0 3.861.545 4.761 2.015.388.641.608 1.495.608 2.49v8.182h-2.333v-1.543c-.729.95-2.185 1.897-4.252 1.897-2.575 0-4.76-1.305-4.76-4.033 0-2.134 1.48-3.652 4.639-3.914l4.373-.356v-.238c0-1.659-.729-2.727-3.036-2.727-1.847 0-2.843.712-2.964 1.778H70.08zm8.404 3.796v-.95l-4.13.356c-1.702.142-2.55.95-2.55 2.253 0 1.661 1.215 2.252 2.671 2.252 2.188.003 4.009-1.421 4.009-3.911m9.523-5.1c-1.7 0-2.794.95-2.794 3.084v7.354h-2.332V26.327h2.332v1.424c.608-1.068 1.579-1.662 3.401-1.662h.657v2.134h-1.264zm1.968 1.304c.243-1.97 1.943-3.558 5.37-3.558 2.089 0 3.86.545 4.76 2.015.389.641.608 1.495.608 2.49v8.182h-2.332v-1.543c-.73.95-2.186 1.897-4.252 1.897-2.576 0-4.762-1.305-4.762-4.033 0-2.134 1.482-3.652 4.64-3.914l4.374-.356v-.238c0-1.659-.73-2.727-3.037-2.727-1.846 0-2.842.712-2.964 1.778h-2.405zm8.406 3.796v-.95l-4.13.356c-1.703.142-2.551.95-2.551 2.253 0 1.661 1.215 2.252 2.672 2.252 2.185.003 4.009-1.421 4.009-3.911M112.179 37c-.73 1.187-2.186 2.016-4.131 2.016-3.789 0-5.853-2.965-5.853-6.523s2.064-6.523 5.853-6.523c1.943 0 3.401.83 4.131 2.015V22.06h2.33v16.604h-2.333V37zm-3.766-9.131c-2.55 0-3.887 2.015-3.887 4.624s1.337 4.626 3.887 4.626 3.887-2.134 3.887-4.626c0-2.49-1.337-4.624-3.887-4.624m15.086 8.894v1.897h-7.482v-1.897h2.576v-8.538h-2.576v-1.897h4.906v10.437h2.576zm-2.576-12.334h-2.332V22.06h2.332zm12.389 12.334c-.486.712-1.821 1.778-4.009 1.778-3.546 0-5.853-2.846-5.853-6.286s2.307-6.285 5.853-6.285c2.186 0 3.523 1.068 4.009 1.778v-1.424h2.333v11.028c0 3.914-2.307 5.93-5.977 5.93-2.819 0-4.883-1.425-5.37-3.559h2.429c.22.854 1.118 1.778 2.938 1.778 2.672 0 3.645-1.66 3.645-4.152v-.586zm-3.763-8.894c-2.307 0-3.766 2.015-3.766 4.389 0 2.371 1.456 4.389 3.766 4.389 2.428 0 3.887-2.016 3.887-4.39-.002-2.373-1.459-4.388-3.887-4.388m10.565-.119c.729-1.306 2.185-1.778 3.644-1.778 1.699 0 3.279.712 4.009 2.134.729-1.305 2.064-2.134 4.252-2.134 2.671 0 4.616 1.543 4.616 4.624v8.064h-2.332v-7.708c0-2.015-.851-3.083-2.771-3.083-1.58 0-3.157.95-3.157 3.44v7.353h-2.333v-7.708c0-2.015-.851-3.083-2.77-3.083-1.58 0-3.158.95-3.158 3.44v7.353h-2.333V26.327h2.333z"/></svg>