<svg xmlns="http://www.w3.org/2000/svg" xmlns:xlink="http://www.w3.org/1999/xlink" viewBox="10.0078125 10.0078125 180.6171875 40.984375" width="96.95348837209302" height="22"><path fill="#fff" fill-rule="evenodd" d="M94.847 39.48V20.294h-3.155V39.48zm-30.973-6.72v6.72h-3.282V21.294h7.083q2.091 0 3.618.743 1.526.744 2.325 2.061.798 1.318.798 3.004 0 1.761-.792 3.035t-2.306 1.949-3.643.674zm0-2.598h3.801q1.761 0 2.604-.812.843-.81.843-2.223 0-.874-.368-1.605-.368-.73-1.14-1.174-.774-.444-1.939-.444h-3.801zm18.686 9.569q1.964 0 3.408-.887a5.8 5.8 0 0 0 2.211-2.448q.767-1.562.767-3.535v-.262q0-1.974-.767-3.535a5.84 5.84 0 0 0-2.217-2.455q-1.45-.893-3.428-.893-1.95 0-3.395.893a5.86 5.86 0 0 0-2.211 2.455q-.767 1.56-.767 3.535v.262q0 1.974.767 3.535a5.8 5.8 0 0 0 2.217 2.448q1.451.887 3.415.887m-2.433-3.722q.81 1.224 2.433 1.224 1.077 0 1.805-.58.729-.581 1.078-1.568.348-.988.348-2.224V32.6q0-1.224-.349-2.217-.348-.993-1.083-1.58t-1.825-.587q-1.076 0-1.799.587t-1.07 1.58q-.35.992-.349 2.217v.262q0 1.924.811 3.148m22.034 7.922q-.969 1.006-2.769 1.006-.62 0-1.507-.225v-2.386l.582.025q1.129 0 1.717-.393.59-.394.932-1.38l.431-1.15-4.815-13.464h3.408l2.851 9.068 2.762-9.068h3.358l-5.461 15.563a6.85 6.85 0 0 1-1.489 2.404m11.825-4.45v-9.768q.76-1.461 2.572-1.461 1.191 0 1.806.574.615.575.615 1.936v8.719h3.155v-9.006l-.013-.287q.278-.887.944-1.412t1.654-.524q1.202 0 1.805.543.602.544.602 1.93v8.756h3.155v-8.744q0-2.61-1.154-3.815t-3.331-1.206q-1.382 0-2.446.544a4.84 4.84 0 0 0-1.761 1.517q-.52-1.05-1.483-1.555-.963-.506-2.255-.506-1.267 0-2.262.431a4.6 4.6 0 0 0-1.692 1.243l-.101-1.424h-2.965v13.515zm25.668-.162q-.9.411-2.041.412-1.342 0-2.407-.525t-1.659-1.449a3.75 3.75 0 0 1-.596-2.073q0-2.16 1.628-3.31 1.629-1.15 4.618-1.15h1.901v-.874q0-1.074-.595-1.68t-1.762-.606q-.696 0-1.229.238a1.95 1.95 0 0 0-.823.65 1.56 1.56 0 0 0-.292.924h-3.155q0-1.088.703-2.043t2.002-1.536q1.299-.58 2.972-.58 1.57 0 2.775.524t1.881 1.574q.679 1.05.678 2.56v5.958q0 1.849.52 2.936v.212h-3.218q-.204-.437-.355-1.262a4.9 4.9 0 0 1-1.546 1.1m-1.432-2.075q-1.001 0-1.558-.518t-.558-1.343q0-1.061.849-1.649.848-.586 2.496-.587h1.647v2.524q-.354.648-1.121 1.111-.766.462-1.755.462m12.35-6.969v9.206h-3.154V25.966h3.002l.089 1.524a3.8 3.8 0 0 1 1.292-1.312q.774-.462 1.787-.462.266 0 .602.05t.501.113l-.026 2.935a8 8 0 0 0-1.254-.1q-2.116 0-2.839 1.561m9.17 9.205v-4.385l1.383-1.386 3.991 5.77h3.649l-5.613-7.893 5.081-5.621h-3.802l-3.75 4.184-.939 1.15V20.293h-3.141V39.48zm19.714-.474q-1.331.725-3.219.725-2.002 0-3.498-.856a5.84 5.84 0 0 1-2.292-2.342q-.799-1.485-.799-3.335v-.512q0-2.086.812-3.666.81-1.58 2.229-2.442t3.193-.862q1.939 0 3.257.837 1.317.837 1.97 2.342t.653 3.491v1.312h-8.933q.088 1.036.545 1.836.455.8 1.235 1.249t1.818.45q2.128 0 3.422-1.65l1.685 1.612q-.748 1.087-2.078 1.811m-.812-7.556h-5.752q.215-1.537.976-2.386.76-.85 2.001-.85 1.394 0 2.054.844.658.843.721 2.154zm11.882 7.98q-.912.3-2.052.3-1.673 0-2.636-.911-.963-.912-.963-2.91v-7.645h-2.23v-2.298h2.23v-3.298h3.155v3.298h2.407v2.298h-2.407v7.432q0 .849.355 1.156.354.306 1.064.306.507 0 1.077-.126zM43.072 28.781V10L10 19.315v22.37L43.072 51zm-3.2-.901V14.19L15.57 21.035zm-2.375 2.62L13.2 23.656v13.688zM15.57 39.965l24.301 6.845V33.12z" clip-rule="evenodd"/></svg>