<svg version="1.1" id="Layer_1" xmlns:x="ns_extend;" xmlns:i="ns_ai;" xmlns:graph="ns_graphs;" xmlns="http://www.w3.org/2000/svg" xmlns:xlink="http://www.w3.org/1999/xlink" x="0px" y="0px" viewBox="0 0 1940.1 469.1" style="enable-background:new 0 0 1940.1 469.1;" xml:space="preserve">
 <style type="text/css">
  .st0{fill:#FFFFFF;}
	.st1{fill:none;}
 </style>
 <metadata>
  <sfw xmlns="ns_sfw;">
   <slices>
   </slices>
   <sliceSourceBounds bottomLeftOrigin="true" height="467.4" width="1940.1" x="-1129.1" y="-346.7">
   </sliceSourceBounds>
  </sfw>
 </metadata>
 <g>
  <path class="st0" d="M747.7,152.6l-3.5,52.2c-8.9-5-17.4-7-29.4-7c-23.2,0-38.6,13.1-38.6,42.9v81.2h-55.6V150.3h55.6v31.3
		c6.6-19.3,24.3-35.9,47.5-35.9C734.2,145.6,743,148.7,747.7,152.6z M865.5,249.2v-3.5l-28.2,5.8c-17.4,3.5-28.2,7.7-28.2,21.3
		c0,10,7.7,16.2,19.7,16.2C849.3,289,865.5,273.6,865.5,249.2z M920.4,212.5v62.6c0,8.9,3.9,12.8,10.8,12.8c5,0,9.3-0.8,14.3-3.1
		v29.8c-8.5,6.2-19.3,11.2-36.3,11.2c-20.5,0-35.5-10.8-40.6-30.1c-9.7,19.7-30.9,30.1-57.6,30.1c-34.4,0-56-17.4-56-46.8
		c0-32.9,24.7-46.8,62.6-54.1l47.9-8.5v-3.1c0-16.2-8.1-25.9-25.1-25.9c-16.2,0-24.3,10-27.4,24.3l-51.8-3.9
		c5.8-36.7,33.2-62.2,82.3-62.2C888.3,145.6,920.4,165.7,920.4,212.5z M965.2,150.3h55.6v171.6h-55.6V150.3z M964.8,129.4v-51h56.8
		v51H964.8z M1112.8,234.5v87.3h-55.6V150.3h55.6v26.7c9.3-18.9,30.1-31.3,56-31.3c46.4,0,61.8,32.1,61.8,68.8v107.4H1175V228
		c0-24.7-8.1-38.3-28.6-38.3C1124,189.7,1112.8,207.5,1112.8,234.5z M1320.7,234.1v3.9c0,27.8,15.8,45.2,39,45.2
		c26.3,0,39-18.9,39-47.2c0-27.8-12.8-46.8-39-46.8C1336.5,189.3,1320.7,206.7,1320.7,234.1z M1318,291l-10,30.9H1265V78.4h55.6
		v102.8c8.5-20.5,28.2-35.6,58-35.6c50.2,0,76.5,40.2,76.5,90.4c0,50.6-26.3,90.4-77.7,90.4C1348.9,326.5,1327.3,311.8,1318,291z
		 M1529.7,236.1c0,28.6,11.2,48.3,35.9,48.3c24.3,0,36.3-19.7,36.3-48.3c0-28.6-12-48.3-36.3-48.3
		C1540.9,187.8,1529.7,207.5,1529.7,236.1z M1658.4,236.1c0,53.3-37.9,90.4-92.7,90.4c-54.9,0-92.3-37.1-92.3-90.4
		c0-53,37.5-90.4,92.3-90.4C1620.5,145.6,1658.4,183.1,1658.4,236.1z M1827.6,150.3l27.4,104.4h1.5l32.8-104.4h50.6l-54.5,171.6
		h-54.5l-27.8-103.6h-1.5l-27.4,103.6h-54.5l-54.5-171.6h55.6l32.8,104.4h1.5l27.4-104.4H1827.6z">
  </path>
 </g>
 <g>
  <polygon class="st0" points="0,119.3 0,349.8 0,349.8 0,119.2 	">
  </polygon>
  <path class="st1" d="M118.4,0.9H0v118.4C0,53.9,53,0.9,118.4,0.9z">
  </path>
  <path class="st1" d="M349,468.2h118.4V349.8C467.4,415.2,414.4,468.2,349,468.2z">
  </path>
  <path class="st1" d="M0,349.8v118.4h118.4C53,468.2,0,415.2,0,349.8z">
  </path>
  <path class="st1" d="M349,0.9c65.4,0,118.4,53,118.4,118.4V0.9H349z">
  </path>
  <path class="st0" d="M349,0.9H118.4C53,0.9,0,53.9,0,119.2v230.6c0,65.4,53,118.4,118.4,118.4H349c65.4,0,118.4-53,118.4-118.4
		V119.3C467.4,53.9,414.4,0.9,349,0.9z M259,384.5c0,3.2-2.6,5.8-5.8,5.8h-27.3c-12.9,0-23.4-10.5-23.4-23.4
		c0-55.9-45.3-101.3-101.3-101.3c-12.9,0-23.4-10.5-23.4-23.4v-27.3c0-3.2,2.6-5.8,5.8-5.8h17.5c87.1,0,157.7,70.6,157.7,157.7
		V384.5z M324.2,384.5c0,3.2-2.6,5.8-5.8,5.8h-44.8c-3.2,0-5.8-2.6-5.8-5.8V367c0-92-74.5-166.5-166.5-166.5H83.7
		c-3.2,0-5.8-2.6-5.8-5.8v-44.8c0-3.2,2.6-5.8,5.8-5.8h17.5c123.1,0,223,99.8,223,223V384.5z M366.1,390.3h-27.3
		c-3.2,0-5.8-2.6-5.8-5.8V367c0-128-103.8-231.7-231.7-231.7H83.7c-3.2,0-5.8-2.6-5.8-5.8v-27.3c0-12.9,10.5-23.4,23.4-23.4
		c159.2,0,288.2,129,288.2,288.2C389.5,379.9,379,390.3,366.1,390.3z">
  </path>
 </g>
</svg>