<svg xmlns="http://www.w3.org/2000/svg" xmlns:xlink="http://www.w3.org/1999/xlink" viewBox="60.76171875 11.67578125 153.453125 49.32421875" width="68.44444444444444" height="22"><path fill="#000" d="M74.032 33.864c-1.84-1-2.787-1.841-2.787-2.999 0-1.472 1.314-2.418 3.367-2.418 2.389 0 4.522.999 4.522.999l1.682-5.155s-1.547-1.21-6.1-1.21c-6.337 0-10.729 3.629-10.729 8.73 0 2.893 2.05 5.102 4.787 6.679 2.209 1.261 2.998 2.156 2.998 3.47 0 1.367-1.105 2.472-3.155 2.472-3.056 0-5.942-1.579-5.942-1.579l-1.788 5.155s2.666 1.788 7.152 1.788c6.522 0 11.202-3.208 11.202-8.993-.001-3.1-2.367-5.31-5.209-6.94m25.981-10.833c-3.208 0-5.733 1.525-7.678 3.838l-.105-.053 2.787-14.567h-7.258l-7.047 37.076h7.258l2.42-12.674c.946-4.787 3.418-7.73 5.732-7.73 1.63 0 2.262 1.104 2.262 2.682 0 1-.105 2.21-.315 3.208l-2.734 14.515h7.258l2.839-14.989c.316-1.578.527-3.47.527-4.733-.003-4.103-2.159-6.574-5.945-6.574m22.349.001c-8.731 0-14.514 7.888-14.514 16.67 0 5.627 3.47 10.149 9.992 10.149 8.572 0 14.357-7.677 14.357-16.67 0-5.206-3.051-10.15-9.835-10.15m-3.576 21.247c-2.472 0-3.524-2.104-3.524-4.734 0-4.154 2.157-10.938 6.101-10.938 2.577 0 3.417 2.21 3.417 4.366 0 4.469-2.154 11.306-5.994 11.306m31.975-21.246c-4.899 0-7.679 4.312-7.679 4.312h-.104l.421-3.891h-6.416c-.315 2.63-.895 6.625-1.472 9.624l-5.049 26.556h7.258l1.997-10.728h.159s1.489.946 4.26.946c8.519 0 14.093-8.729 14.093-17.565 0-4.889-2.157-9.254-7.468-9.254m-6.942 21.35c-1.884 0-2.999-1.051-2.999-1.051l1.21-6.784c.842-4.522 3.208-7.52 5.733-7.52 2.209 0 2.892 2.05 2.892 3.997 0 4.68-2.787 11.359-6.836 11.359m24.77-31.764c-2.313 0-4.154 1.84-4.154 4.206 0 2.157 1.367 3.63 3.418 3.63h.105c2.262 0 4.207-1.526 4.26-4.207 0-2.104-1.42-3.63-3.629-3.63m-10.149 36.708h7.256l4.945-25.715h-7.311zm30.66-25.768h-5.049l.262-1.21c.421-2.471 1.894-4.68 4.313-4.68a7.6 7.6 0 0 1 2.313.368l1.42-5.68s-1.262-.63-3.945-.63c-2.577 0-5.152.736-7.099 2.418-2.472 2.104-3.629 5.153-4.207 8.204l-.209 1.21h-3.367l-1.052 5.47h3.367l-3.839 20.3h7.258l3.839-20.3h4.996zm17.459.054s-4.537 11.43-6.574 17.669h-.106c-.138-2.01-1.788-17.67-1.788-17.67h-7.626l4.367 23.612c.106.525.053.842-.158 1.21-.843 1.63-2.262 3.208-3.945 4.365-1.367.999-2.892 1.63-4.101 2.05L188.627 61c1.473-.315 4.522-1.526 7.099-3.944 3.314-3.103 6.363-7.889 9.518-14.41l8.888-19.038h-7.572z"/></svg>