<svg xmlns="http://www.w3.org/2000/svg" xmlns:xlink="http://www.w3.org/1999/xlink" viewBox="10.0078125 10.0078125 98.41015625 40.984375" width="52.825581395348834" height="22"><path fill="#635bff" fill-rule="evenodd" d="M108.531 31.184c0-7.006-3.393-12.535-9.88-12.535-6.514 0-10.455 5.529-10.455 12.48 0 8.239 4.653 12.399 11.33 12.399 3.258 0 5.721-.739 7.582-1.779v-5.474c-1.861.93-3.996 1.505-6.705 1.505-2.655 0-5.01-.93-5.31-4.16h13.384c0-.356.054-1.779.054-2.436m-13.52-2.6c0-3.093 1.888-4.38 3.613-4.38 1.669 0 3.448 1.287 3.448 4.38zM77.63 18.65c-2.682 0-4.407 1.259-5.365 2.135l-.355-1.697h-6.022V51l6.843-1.45.027-7.746c.985.711 2.436 1.724 4.844 1.724 4.9 0 9.361-3.941 9.361-12.617-.027-7.938-4.543-12.262-9.333-12.262m-1.642 18.858c-1.615 0-2.573-.575-3.23-1.287l-.027-10.154c.711-.794 1.697-1.341 3.257-1.341 2.49 0 4.215 2.792 4.215 6.377 0 3.668-1.697 6.405-4.215 6.405M56.474 17.034l6.87-1.478V10l-6.87 1.45zm0 2.08h6.87v23.949h-6.87zm-7.362 2.026-.438-2.026h-5.912v23.949h6.842v-16.23c1.615-2.108 4.352-1.725 5.2-1.424v-6.295c-.875-.328-4.078-.93-5.693 2.026m-13.685-7.965-6.679 1.423-.027 21.923c0 4.051 3.038 7.034 7.089 7.034 2.244 0 3.886-.41 4.79-.903v-5.556c-.876.356-5.2 1.615-5.2-2.436v-9.716h5.2v-5.83h-5.2zM16.925 26.066c0-1.067.875-1.478 2.326-1.478 2.08 0 4.708.63 6.788 1.752v-6.432c-2.272-.903-4.516-1.26-6.788-1.26-5.556 0-9.251 2.902-9.251 7.747 0 7.554 10.4 6.35 10.4 9.606 0 1.26-1.094 1.67-2.627 1.67-2.272 0-5.173-.93-7.472-2.19v6.514a19 19 0 0 0 7.472 1.56c5.693 0 9.607-2.819 9.607-7.718-.027-8.156-10.455-6.706-10.455-9.77" clip-rule="evenodd"/></svg>