<svg xmlns="http://www.w3.org/2000/svg" xmlns:xlink="http://www.w3.org/1999/xlink" viewBox="0 0 295.45703125 43" width="151.1640625" height="22"><path fill="currentColor" d="M74.429 14.544c0-4-3.955-7.705-11.147-10.44C56.306 1.458 47.05 0 37.214 0S18.123 1.459 11.147 4.103C3.967 6.84 0 10.543 0 14.543c0 4.002 3.955 7.706 11.147 10.441 2.998 1.14 6.429 2.063 10.19 2.747H0v.684c0 4 3.955 7.705 11.147 10.44 6.976 2.645 16.231 4.115 26.067 4.115 9.837 0 19.092-1.459 26.068-4.114 7.18-2.724 11.147-6.44 11.147-10.44 0-4.002-3.955-7.706-11.147-10.441-2.998-1.14-6.429-2.063-10.19-2.747h21.337zM60.91 26.626c-.422.695-1.174 1.105-2.018 1.105h-6.348c-.24-4.833-3.09-9.323-7.489-11.808 3.705.661 7.124 1.79 9.905 3.294 2.758 1.493 4.764 3.248 5.95 5.198a2.09 2.09 0 0 1 0 2.21Zm-33.727-5.152c0-3.442 4.502-6.246 10.042-6.246s10.041 2.804 10.041 6.246-4.502 6.246-10.041 6.246-10.042-2.804-10.042-6.246m-13.655-5.14c.422-.696 1.174-1.106 2.018-1.106h6.349c.239 4.832 3.088 9.323 7.488 11.808-3.704-.661-7.112-1.79-9.905-3.294-2.758-1.493-4.764-3.248-5.95-5.198a2.09 2.09 0 0 1 0-2.21m8.367-2.486h-6.35c-.843 0-1.595-.41-2.017-1.105a2.09 2.09 0 0 1 0-2.211c1.186-1.96 3.192-3.705 5.95-5.198 2.781-1.504 6.2-2.644 9.905-3.294-4.4 2.485-7.249 6.976-7.488 11.809Zm30.66 15.262h6.349c.843 0 1.596.41 2.017 1.106a2.09 2.09 0 0 1 0 2.211c-1.185 1.96-3.191 3.705-5.95 5.198-2.78 1.504-6.2 2.644-9.904 3.294 4.4-2.485 7.249-6.976 7.488-11.809m-2.519-16.333c-.524.684-1.333 1.072-2.222 1.072h-21.19c-.888 0-1.698-.388-2.222-1.072a2.47 2.47 0 0 1-.387-2.336c1.88-5.426 7.18-9.073 13.198-9.073s11.319 3.647 13.2 9.072a2.47 2.47 0 0 1-.388 2.337zM22.044 2.633a28 28 0 0 0-3.283 1.516c-4.753 2.576-7.534 6.018-7.83 9.71H4.49c-.752 0-1.425-.398-1.755-1.036a1.73 1.73 0 0 1 .193-1.927c.342-.421.741-.832 1.186-1.242 1.766-1.596 4.32-3.02 7.59-4.263 3.033-1.151 6.509-2.074 10.35-2.747zM4.479 15.228h6.44c.308 3.693 3.09 7.135 7.83 9.71 1.015.548 2.12 1.06 3.283 1.517-3.84-.673-7.317-1.596-10.35-2.747-3.27-1.243-5.823-2.679-7.59-4.263a10 10 0 0 1-1.185-1.242 1.73 1.73 0 0 1-.194-1.927c.33-.638 1.003-1.037 1.755-1.037zm19.924 14.954c.524-.684 1.334-1.072 2.223-1.072h21.189c.889 0 1.698.388 2.222 1.072s.661 1.539.388 2.336c-1.881 5.426-7.181 9.073-13.2 9.073-6.017 0-11.317-3.647-13.198-9.073a2.47 2.47 0 0 1 .387-2.336zm28.005 10.144a28 28 0 0 0 3.282-1.516c4.753-2.576 7.535-6.018 7.83-9.711h6.44c.753 0 1.425.399 1.756 1.037a1.73 1.73 0 0 1-.194 1.927c-.342.421-.74.831-1.185 1.242-1.767 1.596-4.32 3.032-7.591 4.263-3.032 1.15-6.508 2.074-10.35 2.747zm17.564-12.595h-6.44c-.307-3.693-3.089-7.135-7.83-9.71a30 30 0 0 0-3.283-1.517c3.841.673 7.318 1.596 10.35 2.747 3.27 1.243 5.824 2.679 7.59 4.263.457.41.856.82 1.186 1.242a1.73 1.73 0 0 1 .194 1.927c-.33.638-1.015 1.037-1.755 1.037zm-55.85 2.986c.502-.991 1.539-1.618 2.713-1.618h5.06c.24 4.844 3.09 9.324 7.489 11.808-3.704-.66-7.124-1.79-9.905-3.294-2.108-1.14-3.784-2.439-4.992-3.875a2.72 2.72 0 0 1-.365-3.02Zm-10.77-.148c.387-.9 1.276-1.459 2.301-1.459h5.266c.308 3.693 3.09 7.136 7.83 9.712 1.015.558 2.12 1.06 3.283 1.515-3.84-.672-7.317-1.595-10.35-2.747-3.259-1.242-5.823-2.678-7.59-4.262-.068-.069-.148-.126-.217-.194-.718-.673-.923-1.653-.535-2.542zM52.407 2.633c3.841.672 7.317 1.596 10.35 2.747 3.26 1.242 5.824 2.678 7.59 4.263.069.068.148.125.217.193.718.673.923 1.653.535 2.542-.387.9-1.276 1.46-2.302 1.46h-5.266c-.307-3.694-3.089-7.136-7.83-9.712a28 28 0 0 0-3.283-1.516zm7.922 9.597c-.502.992-1.54 1.618-2.713 1.618h-5.061c-.24-4.832-3.089-9.323-7.488-11.808 3.704.661 7.112 1.79 9.904 3.294 2.109 1.14 3.785 2.44 4.993 3.876a2.72 2.72 0 0 1 .364 3.02Zm36.609 23.274q-2.977 0-5.22-1.063-2.243-1.064-3.48-2.997Q87 29.51 87 26.919h4.06q.04 1.47.716 2.688.677 1.218 1.972 1.933 1.296.716 3.19.716 1.624 0 2.804-.542 1.18-.541 1.798-1.488.619-.948.619-2.185 0-1.431-.658-2.36-.657-.927-1.76-1.527-1.101-.599-2.551-1.063t-3.036-1.005q-3.21-1.045-4.776-2.707-1.566-1.663-1.566-4.331 0-2.282 1.083-3.964t3.036-2.63 4.62-.947q2.63 0 4.602.967 1.973.966 3.094 2.668 1.121 1.701 1.121 3.983h-4.099q0-1.044-.541-2.05t-1.624-1.643-2.668-.638q-1.315-.039-2.36.425-1.043.464-1.623 1.354t-.58 2.127.522 1.991 1.527 1.296 2.359.966l2.939 1.006q2.01.657 3.577 1.605 1.566.947 2.475 2.436.908 1.489.908 3.809 0 2.01-1.044 3.75t-3.093 2.843-5.105 1.102m20.65-.464V24.986L108.655 7.97h4.37l6.497 13.264 6.496-13.264h4.331l-8.894 17.015V35.04Zm17.44 0V7.971h3.867L152.7 28.737V7.97h3.867v27.07H152.7l-13.805-20.727V35.04Zm28.345 0V7.971h8.314q4.718 0 7.812 1.663 3.093 1.663 4.582 4.698t1.489 7.212-1.489 7.193-4.563 4.66-7.83 1.643Zm3.867-3.248h4.293q3.75 0 5.955-1.238t3.152-3.538.947-5.472q0-3.21-.947-5.53-.948-2.32-3.152-3.557t-5.955-1.238h-4.293Zm24.13 3.248V7.971h3.867V35.04Zm22.545.464q-3.983 0-6.864-1.76-2.88-1.759-4.447-4.91-1.566-3.152-1.566-7.329 0-4.137 1.566-7.308t4.447-4.93 6.864-1.76q4.757 0 7.715 2.281t3.77 6.42h-4.254q-.58-2.398-2.378-3.829-1.798-1.43-4.853-1.43-2.745 0-4.756 1.276t-3.094 3.635-1.083 5.645 1.083 5.666 3.094 3.635 4.756 1.256q3.055 0 4.853-1.372t2.378-3.732h4.254q-.812 4.022-3.77 6.284t-7.715 2.262m15.004-.464 9.938-27.069h4.215l9.938 27.069h-4.137l-2.36-6.69h-11.175l-2.359 6.69Zm16.512-9.784-4.486-12.645-4.485 12.645Zm15.932 9.784V11.142h-8.005V7.97h19.916v3.17h-8.044v23.9Zm16.976 0V7.971h17.092v3.17h-13.225v8.663h12.065v3.094h-12.065v8.971h13.225v3.171Z"/></svg>