<svg xmlns="http://www.w3.org/2000/svg" xmlns:xlink="http://www.w3.org/1999/xlink" viewBox="10.0078125 10.0078125 183.953125 40.984375" width="98.74418604651163" height="22"><path fill="#000" d="M23.642 50.364h-10.84L22.85 19.6H10l2.803-9.017H48.6L45.798 19.6H33.636zm40.338 0H38.283l12.903-39.78h25.592l-2.432 7.584h-14.86l-2.696 8.54h14.382l-2.432 7.478H54.304l-2.696 8.593H66.36zm11.632 0h-8.619l12.955-39.78h14.383l-.476 21.48 14.013-21.48h15.757l-12.902 39.78H99.936l8.566-26.733h-.158L90.735 50.364h-6.398l.264-27.05h-.105zm60.146-32.408-4.177 12.836h1.163q3.966 0 6.61-1.857 2.644-1.91 3.437-5.41.688-3.022-.74-4.296-1.428-1.273-4.759-1.273zm-10.469 32.408h-10.84l12.902-39.78h13.166q4.548 0 7.826 1.485 3.332 1.431 4.865 4.137 1.587 2.652 1.058 6.205-.688 4.667-3.596 8.222-2.908 3.553-7.562 5.516-4.6 1.91-10.311 1.91h-3.542zm54.814-2.546Q174.709 51 168.628 51h-.105q-5.394 0-9.095-2.387-3.65-2.44-5.235-6.577-1.533-4.137-.74-9.07 1.004-6.206 4.6-11.456t8.989-8.38Q172.436 10 178.569 10h.106q5.605 0 9.254 2.387 3.7 2.387 5.129 6.524 1.48 4.084.634 9.176-1.004 5.993-4.6 11.297-3.596 5.25-8.989 8.434m-14.965-6.843q1.428 2.706 4.971 2.706h.106q2.908 0 5.393-2.175 2.538-2.227 4.283-5.94 1.798-3.714 2.644-8.275.793-4.455-.634-7.16-1.428-2.759-4.918-2.758h-.106q-2.696 0-5.235 2.227-2.484 2.227-4.336 5.994-1.85 3.765-2.696 8.168-.846 4.456.528 7.213"/></svg>