<svg xmlns="http://www.w3.org/2000/svg" viewBox="0 0 295.45 43">
  <g fill="currentColor"><path fill="currentColor" d="M74.429 14.544c0-4-3.955-7.705-11.147-10.44C56.306 1.458 47.05 0 37.214 0c-9.836 0-19.091 1.459-26.067 4.103C3.967 6.84 0 10.543 0 14.543c0 4.002 3.955 7.706 11.147 10.441 2.998 1.14 6.429 2.063 10.19 2.747H0v.684c0 4 3.955 7.705 11.147 10.44 6.976 2.645 16.231 4.115 26.067 4.115 9.837 0 19.092-1.459 26.068-4.114 7.18-2.724 11.147-6.44 11.147-10.44 0-4.002-3.955-7.706-11.147-10.441-2.998-1.14-6.429-2.063-10.19-2.747h21.337v-.684ZM60.91 26.626c-.422.695-1.174 1.105-2.018 1.105h-6.348c-.24-4.833-3.09-9.323-7.489-11.808 3.705.661 7.124 1.79 9.905 3.294 2.758 1.493 4.764 3.248 5.95 5.198a2.09 2.09 0 0 1 0 2.21Zm-33.727-5.152c0-3.442 4.502-6.246 10.042-6.246s10.041 2.804 10.041 6.246c0 3.442-4.502 6.246-10.041 6.246-5.54 0-10.042-2.804-10.042-6.246Zm-13.655-5.14c.422-.696 1.174-1.106 2.018-1.106h6.349c.239 4.832 3.088 9.323 7.488 11.808-3.704-.661-7.112-1.79-9.905-3.294-2.758-1.493-4.764-3.248-5.95-5.198a2.09 2.09 0 0 1 0-2.21Zm8.367-2.486h-6.35c-.843 0-1.595-.41-2.017-1.105a2.09 2.09 0 0 1 0-2.211c1.186-1.96 3.192-3.705 5.95-5.198 2.781-1.504 6.2-2.644 9.905-3.294-4.4 2.485-7.249 6.976-7.488 11.809Zm30.66 15.262h6.349c.843 0 1.596.41 2.017 1.106a2.09 2.09 0 0 1 0 2.211c-1.185 1.96-3.191 3.705-5.95 5.198-2.78 1.504-6.2 2.644-9.904 3.294 4.4-2.485 7.249-6.976 7.488-11.809Zm-2.519-16.333c-.524.684-1.333 1.072-2.222 1.072h-21.19c-.888 0-1.698-.388-2.222-1.072a2.472 2.472 0 0 1-.387-2.336c1.88-5.426 7.18-9.073 13.198-9.073 6.019 0 11.319 3.647 13.2 9.072a2.472 2.472 0 0 1-.388 2.337h.011ZM22.044 2.633a28.086 28.086 0 0 0-3.283 1.516c-4.753 2.576-7.534 6.018-7.83 9.71H4.49c-.752 0-1.425-.398-1.755-1.036a1.73 1.73 0 0 1 .193-1.927c.342-.421.741-.832 1.186-1.242 1.766-1.596 4.32-3.02 7.59-4.263 3.033-1.151 6.509-2.074 10.35-2.747l-.011-.011ZM4.479 15.228h6.44c.308 3.693 3.09 7.135 7.83 9.71 1.015.548 2.12 1.06 3.283 1.517-3.84-.673-7.317-1.596-10.35-2.747-3.27-1.243-5.823-2.679-7.59-4.263a9.977 9.977 0 0 1-1.185-1.242 1.73 1.73 0 0 1-.194-1.927c.33-.638 1.003-1.037 1.755-1.037l.011-.011Zm19.924 14.954c.524-.684 1.334-1.072 2.223-1.072h21.189c.889 0 1.698.388 2.222 1.072s.661 1.539.388 2.336c-1.881 5.426-7.181 9.073-13.2 9.073-6.017 0-11.317-3.647-13.198-9.073a2.472 2.472 0 0 1 .387-2.336h-.01Zm28.005 10.144a28.092 28.092 0 0 0 3.282-1.516c4.753-2.576 7.535-6.018 7.83-9.711h6.44c.753 0 1.425.399 1.756 1.037a1.73 1.73 0 0 1-.194 1.927c-.342.421-.74.831-1.185 1.242-1.767 1.596-4.32 3.032-7.591 4.263-3.032 1.15-6.508 2.074-10.35 2.747l.012.011Zm17.564-12.595h-6.44c-.307-3.693-3.089-7.135-7.83-9.71a30.083 30.083 0 0 0-3.283-1.517c3.841.673 7.318 1.596 10.35 2.747 3.27 1.243 5.824 2.679 7.59 4.263.457.41.856.82 1.186 1.242a1.73 1.73 0 0 1 .194 1.927c-.33.638-1.015 1.037-1.755 1.037l-.012.011Zm-55.85 2.986c.502-.991 1.539-1.618 2.713-1.618h5.06c.24 4.844 3.09 9.324 7.489 11.808-3.704-.66-7.124-1.79-9.905-3.294-2.108-1.14-3.784-2.439-4.992-3.875a2.723 2.723 0 0 1-.365-3.02Zm-10.77-.148c.387-.9 1.276-1.459 2.301-1.459h5.266c.308 3.693 3.09 7.136 7.83 9.712 1.015.558 2.12 1.06 3.283 1.515-3.84-.672-7.317-1.595-10.35-2.747-3.259-1.242-5.823-2.678-7.59-4.262-.068-.069-.148-.126-.217-.194-.718-.673-.923-1.653-.535-2.542l.011-.023ZM52.407 2.633c3.841.672 7.317 1.596 10.35 2.747 3.26 1.242 5.824 2.678 7.59 4.263.069.068.148.125.217.193.718.673.923 1.653.535 2.542-.387.9-1.276 1.46-2.302 1.46h-5.266c-.307-3.694-3.089-7.136-7.83-9.712a28.086 28.086 0 0 0-3.283-1.516l-.011.023Zm7.922 9.597c-.502.992-1.54 1.618-2.713 1.618h-5.061c-.24-4.832-3.089-9.323-7.488-11.808 3.704.661 7.112 1.79 9.904 3.294 2.109 1.14 3.785 2.44 4.993 3.876.73.866.866 2.017.364 3.02Z"></path></g>
  <g fill="currentColor" transform="translate(85.26 35.04) scale(0.03867 -0.03867)">
    <path d="M302 -12Q225 -12 167 15.5Q109 43 77 93Q45 143 45 210L150 210Q151 172 168.5 140.5Q186 109 219.5 90.5Q253 72 302 72Q344 72 374.5 86Q405 100 421 124.5Q437 149 437 181Q437 218 420 242Q403 266 374.5 281.5Q346 297 308.5 309Q271 321 230 335Q147 362 106.5 405Q66 448 66 517Q66 576 94 619.5Q122 663 172.5 687.5Q223 712 292 712Q360 712 411 687Q462 662 491 618Q520 574 520 515L414 515Q414 542 400 568Q386 594 358 610.5Q330 627 289 627Q255 628 228 616Q201 604 186 581Q171 558 171 526Q171 494 184.5 474.5Q198 455 224 441Q250 427 285 416L361 390Q413 373 453.5 348.5Q494 324 517.5 285.5Q541 247 541 187Q541 135 514 90Q487 45 434 16.5Q381 -12 302 -12ZM836 0L836 260L605 700L718 700L886 357L1054 700L1166 700L936 260L936 0ZM1287 0L1287 700L1387 700L1744 163L1744 700L1844 700L1844 0L1744 0L1387 536L1387 0ZM2020 0L2020 700L2235 700Q2357 700 2437 657Q2517 614 2555.5 535.5Q2594 457 2594 349Q2594 241 2555.5 163Q2517 85 2437.5 42.5Q2358 0 2235 0ZM2120 84L2231 84Q2328 84 2385 116Q2442 148 2466.5 207.5Q2491 267 2491 349Q2491 432 2466.5 492Q2442 552 2385 584Q2328 616 2231 616L2120 616ZM2744 0L2744 700L2844 700L2844 0ZM3327 -12Q3224 -12 3149.5 33.5Q3075 79 3034.5 160.5Q2994 242 2994 350Q2994 457 3034.5 539Q3075 621 3149.5 666.5Q3224 712 3327 712Q3450 712 3526.5 653Q3603 594 3624 487L3514 487Q3499 549 3452.5 586Q3406 623 3327 623Q3256 623 3204 590Q3152 557 3124 496Q3096 435 3096 350Q3096 265 3124 203.5Q3152 142 3204 109.5Q3256 77 3327 77Q3406 77 3452.5 112.5Q3499 148 3514 209L3624 209Q3603 105 3526.5 46.5Q3450 -12 3327 -12ZM3715 0L3972 700L4081 700L4338 0L4231 0L4170 173L3881 173L3820 0ZM4142 253L4026 580L3910 253ZM4554 0L4554 618L4347 618L4347 700L4862 700L4862 618L4654 618L4654 0ZM4993 0L4993 700L5435 700L5435 618L5093 618L5093 394L5405 394L5405 314L5093 314L5093 82L5435 82L5435 0Z"/>
  </g>
</svg>
