<svg version="1.1" id="Layer_1" xmlns:x="ns_extend;" xmlns:i="ns_ai;" xmlns:graph="ns_graphs;" xmlns="http://www.w3.org/2000/svg" xmlns:xlink="http://www.w3.org/1999/xlink" x="0px" y="0px" viewBox="0 0 432 72" style="enable-background:new 0 0 432 72;" xml:space="preserve">
 <style type="text/css">
  .st0{fill-rule:evenodd;clip-rule:evenodd;fill:#FFFFFF;}
	.st1{fill-rule:evenodd;clip-rule:evenodd;fill:#0364FF;}
 </style>
 <metadata>
  <sfw xmlns="ns_sfw;">
   <slices>
   </slices>
   <sliceSourceBounds bottomLeftOrigin="true" height="72" width="431.8" x="0" y="0">
   </sliceSourceBounds>
  </sfw>
 </metadata>
 <g>
  <path class="st0" d="M224.3,61.4c2.2,1.1,4.7,1.7,7.3,1.7c4.8,0,8.9-1.9,12.2-5.6c3.4-3.8,5.1-8.3,5.1-13.7c0-5.3-1.7-9.9-5.1-13.7
		c-3.3-3.8-7.4-5.6-12.2-5.6c-2.7,0-5.1,0.6-7.3,1.7c-1.3,0.7-2.4,1.4-3.3,2.3c-0.6,0.6-1.8,0.2-1.8-0.6v-18c0-0.6-0.4-1-1-1h-4.8
		c-0.6,0-1,0.4-1,1V61c0,0.6,0.4,1,1,1h4.8c0.6,0,1-0.4,1-1v-1.2c0-0.8,1.2-1.2,1.8-0.6C222,60,223.1,60.8,224.3,61.4z M238.8,53.2
		c-2.2,2.5-5,3.7-8.2,3.7c-3.3,0-6.1-1.2-8.3-3.6c-2.2-2.5-3.3-5.6-3.3-9.5c0-3.8,1.1-6.9,3.3-9.4c2.2-2.5,5-3.7,8.3-3.7
		c3.3,0,6,1.2,8.2,3.7c2.2,2.5,3.3,5.6,3.3,9.4C242.2,47.6,241,50.8,238.8,53.2z M175.8,57.7c3.5,3.7,7.9,5.5,13.2,5.5
		c3.7,0,6.9-0.9,9.8-2.6c2.6-1.5,4.7-3.6,6.2-6.2c0.3-0.5,0.1-1.2-0.5-1.5l-4.1-2c-0.5-0.3-1.2-0.1-1.5,0.4
		c-2.4,3.7-5.7,5.6-9.7,5.6c-3.2,0-5.9-1.1-8.2-3.3c-2-1.9-3.2-4.4-3.5-7.4c-0.1-0.7,0.5-1.2,1.1-1.2H205c0.6,0,1.2-0.5,1.2-1.1
		c0.2-5-1.4-10.6-4.8-14.2c-3.2-3.5-7.4-5.3-12.8-5.3c-5.2,0-9.5,1.9-12.9,5.6c-3.4,3.7-5,8.3-5,13.8
		C170.6,49.4,172.3,54,175.8,57.7z M179.6,39.4c-0.8,0-1.3-0.7-1.1-1.4c0.7-2,1.8-3.7,3.2-4.9c1.9-1.6,4.1-2.4,6.7-2.4
		c3.1,0,5.6,0.8,7.4,2.5c1.6,1.3,2.5,3,2.9,5c0.1,0.7-0.4,1.3-1.1,1.3H179.6z M167.5,25.6c0.7,0,1.2,0.7,1,1.4l-11,34.2
		c-0.1,0.4-0.6,0.7-1,0.7h-5.4c-0.5,0-0.9-0.3-1-0.7L142.2,37c-0.3-0.9-1.6-0.9-1.9,0l-7.8,24.2c-0.1,0.4-0.6,0.7-1,0.7h-5.3
		c-0.5,0-0.9-0.3-1-0.7l-11-34.2c-0.2-0.7,0.3-1.4,1-1.4h4.9c0.5,0,0.9,0.3,1,0.8l7,23.6c0.3,0.9,1.6,1,1.9,0l7.8-23.7
		c0.1-0.4,0.6-0.7,1-0.7h5.5c0.5,0,0.9,0.3,1,0.7l7.7,23.6c0.3,0.9,1.6,0.9,1.9,0l6.9-23.6c0.1-0.5,0.6-0.8,1-0.8H167.5z
		 M387.4,62.5c-3,0-5.4-0.9-7.4-2.7c-1.9-1.8-2.9-4.4-3-7.6V32.8c0-0.6-0.5-1-1-1h-4.4c-0.6,0-1-0.4-1-1v-4.2c0-0.6,0.5-1,1-1h4.4
		c0.6,0,1-0.4,1-1V9.8c0-0.6,0.5-1,1-1h4.8c0.6,0,1,0.4,1,1v14.8c0,0.6,0.5,1,1,1h6.9c0.6,0,1,0.4,1,1v4.2c0,0.6-0.5,1-1,1h-6.9
		c-0.6,0-1,0.4-1,1v17.1c0,2.4,0.5,4.1,1.4,5c0.9,0.8,2,1.3,3.2,1.3c0.5,0,1.1,0,1.6-0.1c0.2,0,0.3-0.1,0.5-0.1
		c0.6-0.2,1.2,0.1,1.4,0.6l1.5,4.1c0.2,0.5-0.1,1.1-0.6,1.2C391.2,62.3,389.4,62.5,387.4,62.5z M287.5,47.6c0,4.5-1.7,8.2-5,11.1
		c-3.3,3-7.3,4.5-12.2,4.5c-3.8,0-7.2-1.1-10.3-3.4c-2.8-2.2-4.9-4.9-6-8.3c-0.2-0.5,0.1-1.1,0.6-1.3l4.1-1.7
		c0.6-0.3,1.3,0.1,1.6,0.7c0.8,2.2,2,4,3.5,5.3c1.8,1.5,4,2.2,6.5,2.2c2.8,0,5.2-0.9,7.2-2.6c2-1.8,3-3.9,3-6.5s-1-4.6-3.1-6.4
		c-2-1.7-4.5-2.6-7.3-2.6h-3.2c-0.6,0-1.1-0.5-1.1-1.1v-4.1c0-0.6,0.5-1.1,1.1-1.1h2.7c2.7,0,4.9-0.7,6.7-2.2
		c1.7-1.5,2.6-3.5,2.6-5.9c0-2.2-0.8-4-2.4-5.4c-1.6-1.4-3.8-2.1-6.5-2.1c-3.9,0-6.7,1.8-8.4,5.5c-0.3,0.6-0.9,0.9-1.5,0.6l-4.2-1.8
		c-0.6-0.2-0.8-0.9-0.6-1.4c1.2-2.7,2.9-4.9,5.3-6.6c2.7-1.9,5.8-2.9,9.4-2.9c4.5,0,8.3,1.3,11.4,4c3,2.6,4.5,5.9,4.5,10
		c0,4.3-1.8,8-5.3,10.5c-0.6,0.4-0.6,1.3,0.1,1.7c3,1.7,4,3,4.7,4C286.7,42.4,287.5,44.8,287.5,47.6z M302.4,45.9
		c-1.8,1.3-2.7,3-2.7,5c0,1.8,0.7,3.3,2.2,4.5c1.5,1.2,3.3,1.8,5.3,1.8c2.9,0,5.4-1.1,7.6-3.2c2.1-2,3.3-4.3,3.4-6.9
		c0-0.3-0.1-0.7-0.4-0.9c-2.1-1.5-4.9-2.2-8.5-2.2C306.6,43.9,304.2,44.5,302.4,45.9z M308.4,24.4c5,0,9,1.4,11.9,4.1
		c2.9,2.7,4.4,6.4,4.4,11.1V61c0,0.6-0.5,1-1,1h-4.8c-0.6,0-1-0.4-1-1v-4c-2.8,4.2-6.6,6.2-11.3,6.2c-4,0-7.4-1.2-10.1-3.6
		c-2.7-2.4-4-5.3-4-8.9c0-3.8,1.4-6.8,4.2-9c2.9-2.2,6.7-3.3,11.4-3.3c3.3,0,6.1,0.5,8.5,1.5c0.7,0.3,1.5-0.2,1.5-1
		c-0.2-2.2-0.9-4.2-2.8-5.8c-1.9-1.7-4.1-2.5-6.6-2.5c-3.5,0-6.3,1.4-8.5,4.1c-0.3,0.4-0.9,0.5-1.4,0.3l-4.3-2.7
		c-0.5-0.3-0.6-1-0.3-1.4C297.7,26.5,302.4,24.4,308.4,24.4z M363.3,62c0.6,0,1.1-0.5,1.1-1.1V26.7c0-0.6-0.5-1.1-1.1-1.1h-4.7
		c-0.6,0-1.1,0.5-1.1,1.1v19c0,3.1-0.9,5.7-2.7,7.9c-1.8,2.2-4.1,3.3-6.8,3.3c-5.8,0-8.8-3-9-8.9V26.7c0-0.6-0.5-1.1-1.1-1.1h-4.7
		c-0.6,0-1.1,0.5-1.1,1.1v21.8c0,4.7,1.2,8.3,3.6,10.9c2.4,2.5,5.9,3.8,10.3,3.8c2.3,0,4.6-0.6,6.7-1.8c1.2-0.7,2.3-1.4,3.1-2.3
		c0.5-0.5,1.7-0.2,1.7,0.6v1.2c0,0.6,0.5,1.1,1.1,1.1H363.3z M400.6,8.8c-0.6,0-1,0.4-1,1V61c0,0.6,0.5,1,1,1h4.8c0.6,0,1-0.4,1-1
		V42.1c0-3.1,0.9-5.7,2.8-8c1.9-2.3,4.3-3.5,7-3.5c5.8,0,8.7,3.3,8.7,9.8V61c0,0.6,0.4,1,1,1h4.8c0.6,0,1-0.4,1-1V39.1
		c0-4.7-1.2-8.3-3.6-10.8c-2.4-2.6-5.8-3.9-10.2-3.9c-2.3,0-4.6,0.6-6.8,1.8c-1.2,0.7-2.2,1.4-3,2.3c-0.5,0.5-1.7,0.2-1.7-0.6v-18
		c0-0.6-0.4-1-1-1H400.6z">
  </path>
  <path class="st1" d="M77.2,57c-0.5,2-3.3,2-3.9,0l-6.2-23.1c-0.1-0.4-0.1-0.9,0-1.4L72.6,12c0.5-1.8,2.1-3.1,4-3.1h8.1
		c2.7,0,4.7,2.6,4,5.2L77.2,57z M24.1,33.9c0.1-0.4,0.1-0.9,0-1.4L18.6,12c-0.5-1.8-2.1-3.1-4-3.1H6.5c-2.7,0-4.7,2.6-4,5.2L14,57
		c0.5,2,3.3,2,3.9,0L24.1,33.9z">
  </path>
  <path class="st1" d="M41.5,61.7c-0.2,0.7,0.3,1.3,1,1.3h6.1c0.7,0,1.2-0.7,1-1.3l-3.1-11.5c-0.3-1.1-1.8-1.1-2.1,0L41.5,61.7z">
  </path>
  <path class="st1" d="M35.4,69c-0.5,1.8-2.1,3-3.9,3h-8.3c-2.6,0-4.6-2.5-3.9-5.1L36.4,3.3C36.9,1.3,38.6,0,40.6,0h9.9
		c2,0,3.7,1.3,4.2,3.3l17.1,63.7c0.7,2.6-1.2,5.1-3.9,5.1h-8.3c-1.8,0-3.4-1.2-3.9-3l-8.3-31c-0.5-1.9-3.2-1.9-3.8,0L35.4,69z">
  </path>
  <path class="st1" d="M77.2,57c-0.5,2-3.3,2-3.9,0l-6.2-23.1c-0.1-0.4-0.1-0.9,0-1.4l7.9-29.5c0.5-1.8,2.1-3.1,4-3.1h8.1
		c2.7,0,4.7,2.6,4,5.2L77.2,57z M24.1,33.9c0.1-0.4,0.1-0.9,0-1.4L16.2,3.1c-0.5-1.8-2.1-3.1-4-3.1H4.1c-2.7,0-4.7,2.6-4,5.2L14,57
		c0.5,2,3.3,2,3.9,0L24.1,33.9z">
  </path>
 </g>
</svg>